<?xml version="1.0" encoding="utf-8"?>
<!-- Generator: Adobe Illustrator 17.0.0, SVG Export Plug-In . SVG Version: 6.00 Build 0)  -->
<!DOCTYPE svg PUBLIC "-//W3C//DTD SVG 1.1//EN" "http://www.w3.org/Graphics/SVG/1.1/DTD/svg11.dtd">
<svg version="1.1" id="Layer_1" xmlns="http://www.w3.org/2000/svg" xmlns:xlink="http://www.w3.org/1999/xlink" x="0px" y="0px"
	 width="211.161px" height="146.041px" viewBox="0 0 211.161 146.041" enable-background="new 0 0 211.161 146.041"
	 xml:space="preserve">
<g>
	<g>
		<polygon fill="#973E9B" points="20.744,99.303 137.393,31.515 209.957,73.41 93.309,141.198 		"/>
	</g>
	<path fill="#691787" d="M211.096,75.332c-0.001-0.019-0.002-0.037-0.003-0.056c-0.001-0.019-0.003-0.037-0.004-0.056
		c-0.002-0.019-0.004-0.037-0.006-0.056c-0.002-0.019-0.005-0.039-0.008-0.058c-0.003-0.019-0.006-0.039-0.01-0.058
		c-0.004-0.02-0.008-0.04-0.012-0.06c-0.004-0.02-0.009-0.04-0.014-0.06c-0.005-0.02-0.01-0.041-0.016-0.061
		c-0.004-0.015-0.009-0.031-0.013-0.047l0-0.001c-0.001-0.005-0.002-0.009-0.002-0.009c-0.007-0.024-0.014-0.043-0.02-0.063
		c-0.006-0.019-0.013-0.039-0.02-0.058c-0.007-0.019-0.014-0.037-0.021-0.056c-0.007-0.018-0.015-0.037-0.022-0.055
		c-0.008-0.018-0.015-0.036-0.023-0.054c-0.008-0.018-0.017-0.037-0.025-0.055c-0.009-0.02-0.019-0.04-0.029-0.059
		c-0.011-0.023-0.023-0.046-0.035-0.068c-0.014-0.026-0.028-0.051-0.043-0.076c0,0-0.003-0.005-0.004-0.007
		c-0.003-0.006-0.006-0.012-0.009-0.017c-0.027-0.046-0.055-0.091-0.085-0.135c-0.023-0.035-0.047-0.069-0.072-0.102
		c-0.016-0.023-0.033-0.045-0.051-0.066c-0.014-0.018-0.029-0.036-0.044-0.054c-0.014-0.017-0.029-0.035-0.044-0.051
		c-0.015-0.017-0.029-0.033-0.044-0.049c-0.004-0.004-0.007-0.008-0.011-0.011l-0.002-0.002c-0.011-0.012-0.022-0.024-0.034-0.035
		c-0.016-0.016-0.032-0.032-0.048-0.048c-0.017-0.016-0.033-0.032-0.05-0.047c-0.017-0.015-0.034-0.03-0.051-0.045
		c-0.017-0.014-0.034-0.028-0.051-0.042c-0.017-0.013-0.034-0.026-0.05-0.039c-0.017-0.012-0.033-0.024-0.05-0.035
		c-0.016-0.011-0.032-0.022-0.049-0.032c-0.016-0.01-0.032-0.02-0.049-0.03c0,0-0.007-0.004-0.011-0.007L93.309,141.198
		c0.158,0.091,0.308,0.215,0.445,0.36l0.002,0.002c0.136,0.144,0.257,0.31,0.36,0.487c0.001,0.002,0.003,0.005,0.003,0.005
		c0.103,0.179,0.186,0.367,0.242,0.556c0,0,0.001,0.001,0.001,0.002c0.057,0.19,0.088,0.382,0.088,0.564l-0.006,2.057
		c-0.001,0.179-0.033,0.333-0.09,0.456l0,0.001c-0.058,0.123-0.141,0.217-0.244,0.277l116.648-67.788
		c0.078-0.046,0.146-0.111,0.198-0.194c0.016-0.025,0.03-0.051,0.043-0.078C210.999,77.901,211,77.9,211,77.9l0.001-0.003
		c0.009-0.019,0.018-0.039,0.025-0.06c0.007-0.02,0.014-0.04,0.02-0.06c0.006-0.019,0.011-0.038,0.015-0.058
		c0.004-0.018,0.008-0.037,0.011-0.056c0.003-0.018,0.006-0.036,0.008-0.054c0.002-0.018,0.004-0.036,0.006-0.055
		c0.001-0.018,0.002-0.035,0.003-0.054c0.001-0.018,0.001-0.036,0.001-0.055v-0.003l0.006-2.057
		C211.097,75.367,211.097,75.35,211.096,75.332z"/>
	<g>
		<polygon fill="#F2F3F3" points="90.532,121.502 207.18,53.714 207.129,71.777 90.481,139.566 		"/>
	</g>
	<path fill="#973E9B" d="M210.027,50.872l-18.578,10.8l-51.71,30.036l-46.37,26.954L6.898,68.732
		c-0.224-0.135-0.464-0.239-0.688-0.344c-0.015-0.015-0.03-0.015-0.045-0.03c-0.209-0.09-0.434-0.179-0.643-0.254
		c-0.015,0-0.03-0.015-0.045-0.015c-0.209-0.075-0.404-0.12-0.598-0.165c-0.03-0.015-0.045-0.015-0.075-0.015
		c-0.179-0.045-0.374-0.075-0.569-0.09c-0.015,0-0.03,0-0.06-0.015c-0.18-0.015-0.344-0.015-0.524,0H3.548
		c-0.179,0.015-0.344,0.03-0.509,0.06c-0.03,0.015-0.06,0.015-0.09,0.03c-0.135,0.03-0.284,0.075-0.419,0.12
		c-0.179,0.06-0.359,0.15-0.523,0.239l48.404-28.121l51.68-30.05l16.558-9.618c0.165-0.09,0.344-0.165,0.524-0.239
		c0.015,0,0.03-0.015,0.03-0.015c0.135-0.045,0.269-0.075,0.404-0.105c0.015,0,0.045-0.015,0.075-0.03c0,0,0,0,0.015,0
		c0.12-0.015,0.254-0.045,0.389-0.06h0.224c0.045,0,0.09-0.015,0.135-0.015c0.105,0,0.209,0.015,0.314,0.015h0.075
		c0.015,0.015,0.03,0.015,0.06,0.015c0.06,0,0.12,0.015,0.179,0.015c0.105,0.015,0.194,0.03,0.299,0.045
		c0.03,0.015,0.06,0.015,0.09,0.03c0.015,0,0.045,0,0.06,0.015c0.045,0,0.09,0.015,0.135,0.03c0.09,0.015,0.18,0.045,0.284,0.075
		c0.06,0.015,0.12,0.045,0.179,0.06c0.015,0,0.03,0.015,0.045,0.015c0.015,0,0.03,0.015,0.045,0.015
		c0.09,0.03,0.195,0.06,0.284,0.105c0.09,0.03,0.179,0.075,0.269,0.12c0.015,0,0.045,0.015,0.06,0.015
		c0.015,0.015,0.03,0.015,0.045,0.03c0.06,0.03,0.12,0.045,0.18,0.075c0.09,0.06,0.179,0.105,0.284,0.15
		c0.075,0.045,0.135,0.09,0.209,0.12L210.027,50.872z"/>
	<polygon fill="#691787" points="191.449,61.672 139.74,91.707 50.411,40.132 102.091,10.082 	"/>
	<path fill="#691787" d="M211.16,52.791c-0.001-0.018-0.001-0.036-0.003-0.055c-0.001-0.018-0.003-0.037-0.004-0.055
		c-0.002-0.018-0.004-0.037-0.006-0.056c-0.002-0.019-0.005-0.038-0.008-0.057c-0.003-0.019-0.006-0.038-0.01-0.057
		c-0.004-0.02-0.008-0.039-0.012-0.059c-0.004-0.02-0.009-0.04-0.014-0.059c-0.005-0.02-0.01-0.04-0.016-0.06
		c-0.004-0.016-0.009-0.033-0.014-0.049l0-0.002c-0.001-0.004-0.002-0.006-0.003-0.009c-0.006-0.02-0.012-0.039-0.019-0.059
		c-0.007-0.02-0.013-0.039-0.02-0.058c-0.007-0.018-0.014-0.037-0.021-0.055c-0.007-0.018-0.014-0.037-0.022-0.055
		c-0.008-0.018-0.015-0.036-0.023-0.054c-0.008-0.018-0.017-0.037-0.025-0.055c-0.009-0.02-0.019-0.04-0.029-0.06
		c-0.011-0.023-0.023-0.045-0.035-0.067c-0.014-0.027-0.03-0.054-0.045-0.081l-0.002-0.004c-0.002-0.004-0.004-0.008-0.007-0.012
		c-0.028-0.048-0.057-0.094-0.088-0.14c-0.023-0.035-0.047-0.069-0.072-0.102c-0.016-0.022-0.033-0.044-0.05-0.066
		c-0.014-0.018-0.029-0.036-0.044-0.054c-0.015-0.018-0.029-0.035-0.044-0.052c-0.015-0.017-0.029-0.033-0.045-0.049l-0.012-0.012
		l-0.001-0.001c-0.012-0.012-0.023-0.024-0.034-0.036c-0.016-0.016-0.032-0.032-0.048-0.048c-0.017-0.016-0.034-0.032-0.051-0.047
		c-0.017-0.015-0.034-0.03-0.051-0.045c-0.017-0.014-0.034-0.028-0.051-0.042c-0.017-0.013-0.034-0.026-0.051-0.039
		c-0.017-0.012-0.033-0.024-0.05-0.036c-0.016-0.011-0.032-0.022-0.049-0.032c-0.016-0.01-0.032-0.02-0.049-0.03
		c-0.004-0.002-0.008-0.004-0.011-0.007L93.373,118.664c0.158,0.091,0.308,0.215,0.445,0.359c0.001,0.001,0.002,0.001,0.002,0.001
		c0.136,0.145,0.258,0.311,0.361,0.487c0.001,0.002,0.002,0.004,0.002,0.004c0.103,0.179,0.186,0.366,0.243,0.555l0,0.001
		c0.057,0.19,0.089,0.38,0.088,0.56l-0.005,1.857c-0.001,0.178-0.032,0.33-0.089,0.452l-0.001,0.001
		c-0.057,0.123-0.14,0.215-0.241,0.275l0,0v0l116.648-67.788c0.078-0.045,0.144-0.11,0.197-0.192c0.015-0.024,0.03-0.05,0.043-0.078
		l0.002-0.004l0.001-0.001c0.009-0.019,0.017-0.039,0.025-0.059c0.007-0.019,0.014-0.039,0.02-0.06
		c0.006-0.019,0.01-0.038,0.015-0.058c0.004-0.018,0.008-0.037,0.011-0.056c0.003-0.018,0.006-0.036,0.008-0.054
		c0.002-0.018,0.004-0.036,0.006-0.055c0.001-0.018,0.003-0.035,0.003-0.053c0.001-0.018,0.001-0.036,0.001-0.055V54.7l0.005-1.857
		C211.161,52.826,211.161,52.809,211.16,52.791z"/>
	<g>
		<path fill="#691787" d="M93.373,118.664c0.634,0.366,1.142,1.246,1.14,1.967l-0.005,1.857c-0.002,0.722-0.513,1.013-1.147,0.647
			l-2.828-1.633L20.796,81.24l-0.051,18.063l72.564,41.895c0.634,0.366,1.142,1.246,1.14,1.975l-0.006,2.057
			c-0.002,0.721-0.513,1.02-1.147,0.654L6.82,95.957c-3.798-2.193-6.865-7.512-6.852-11.876L0,72.668
			c0.012-4.364,3.099-6.123,6.897-3.931L93.373,118.664z"/>
	</g>
	<g>
		<path fill="#DCDFDF" d="M90.532,121.502l-0.051,18.063L11.73,94.057c-1.872-1.082-3.023-3.083-3.017-5.245l0.038-13.235
			c0.002-0.593,0.644-0.962,1.157-0.666L90.532,121.502z"/>
	</g>
	<polygon fill="#4A4A49" points="170.874,35.8 108.305,72.143 60.696,99.818 76.169,108.752 122.538,81.798 174.248,51.762 
		192.825,40.962 177.356,32.032 	"/>
	<polygon fill="#4A4A49" points="60.702,99.814 60.702,104.287 60.702,122.371 60.702,127.068 76.169,135.998 76.169,131.301 
		76.169,113.217 76.169,108.744 	"/>
</g>
</svg>
