<?xml version="1.0" encoding="utf-8"?>
<!-- Generator: Adobe Illustrator 17.0.0, SVG Export Plug-In . SVG Version: 6.00 Build 0)  -->
<!DOCTYPE svg PUBLIC "-//W3C//DTD SVG 1.1//EN" "http://www.w3.org/Graphics/SVG/1.1/DTD/svg11.dtd">
<svg version="1.1" id="Layer_1" xmlns="http://www.w3.org/2000/svg" xmlns:xlink="http://www.w3.org/1999/xlink" x="0px" y="0px"
	 width="120.813px" height="202.099px" viewBox="0 -141.668 120.813 202.099" enable-background="new 0 -141.668 120.813 202.099"
	 xml:space="preserve">
<g id="hobbies" transform="translate(130.000000, 529.000000)">
	<path id="Shape_21_" fill="#C7C3B7" d="M-15.988-502.382c-0.335-0.413-0.64-0.838-0.934-1.261
		c-2.574-0.845-4.689-2.841-5.478-5.708c-0.406-1.472-0.358-3.034,0.047-4.493c-11.035-6.404-28.025-10.511-47.097-10.511
		c-20.289,0-38.222,4.646-49.136,11.763c-0.025,0.262-0.051,0.51-0.077,0.741c-0.316,2.807-0.733,5.558-1.681,8.225
		c-1.428,4.016-5.103,4.189-9.358,3.561v3.602c0,15.402,26.975,27.894,60.251,27.894c33.275,0,60.249-12.491,60.249-27.894v-3.95
		C-11.76-500.861-14.298-500.289-15.988-502.382L-15.988-502.382z"/>
	<path id="Shape_22_" fill="#EDEDE5" d="M-129.701-500.413c0,15.401,26.975,27.891,60.251,27.891
		c33.275,0,60.249-12.489,60.249-27.891c0-15.408-26.974-27.896-60.249-27.896C-102.726-528.309-129.701-515.821-129.701-500.413
		L-129.701-500.413z"/>
	<path id="Shape_23_" fill="#D0D0C7" d="M-114.715-504.692c0,11.567,20.266,20.955,45.266,20.955
		c24.998,0,45.265-9.388,45.265-20.955c0-11.577-20.267-39.344-45.265-39.344C-94.449-544.036-114.715-516.269-114.715-504.692
		L-114.715-504.692z"/>
	<path id="Shape_24_" fill="#FFFFFF" d="M-9.203-537.719v-3.844v-3.604v-3.937c0-6.618-2.35-11.79-6.445-14.19
		c-3.374-1.976-7.419-1.853-11.393,0.349l-5.726,2.913c-2.04,1.038-2.855,3.536-1.815,5.578c1.039,2.043,3.535,2.854,5.578,1.818
		l5.793-2.95c0.051-0.025,0.099-0.051,0.148-0.078c0.938-0.527,2.258-1.038,3.221-0.472c1.082,0.633,2.343,2.854,2.343,7.031v3.937
		v3.604v3.938c0,0.061,0.003,0.133,0.004,0.194c0.113,2.572-0.535,8.421-3.2,10.044l-12.29,7.217
		c-1.975,1.16-2.637,3.703-1.477,5.678c0.773,1.316,2.159,2.046,3.581,2.046c0.714,0,1.437-0.181,2.097-0.57l12.345-7.251
		C-8.979-524.803-9.131-535.966-9.203-537.719L-9.203-537.719z"/>
	<polyline id="Shape_25_" fill="#D0D0C7" points="-114.715,-504.692 -114.715,-563.123 -97.112,-566.881 -79.155,-566.881 
		-59.35,-565.792 -24.185,-563.123 -24.185,-504.692 -56.8,-497.41 	"/>
	<path id="Shape_26_" fill="#EDEDE5" d="M-114.715-563.123c0,11.567,20.266,20.954,45.266,20.954
		c24.998,0,45.265-9.387,45.265-20.954c0-11.577-20.267-20.959-45.265-20.959C-94.449-584.082-114.715-574.7-114.715-563.123
		L-114.715-563.123z"/>
	<path id="Shape_27_" fill="#D0D0C7" d="M-69.45-580.198c-20.363,0-36.871,7.644-36.871,17.074c0,9.423,16.508,17.07,36.871,17.07
		c20.362,0,36.87-7.648,36.87-17.07C-32.58-572.554-49.088-580.198-69.45-580.198L-69.45-580.198z"/>
	<g id="Clipped" transform="translate(24.000000, 91.000000)">
		<g id="SVGID_1_">
		</g>
		<defs>
			<filter id="Adobe_OpacityMaskFilter" filterUnits="userSpaceOnUse" x="-130.321" y="-657.945" width="73.741" height="34.143">
				<feColorMatrix  type="matrix" values="1 0 0 0 0  0 1 0 0 0  0 0 1 0 0  0 0 0 1 0"/>
			</filter>
		</defs>
		<mask maskUnits="userSpaceOnUse" x="-130.321" y="-657.945" width="73.741" height="34.143" id="mask-2_2_">
			<g filter="url(#Adobe_OpacityMaskFilter)">
				<path id="path-1_2_" fill="#FFFFFF" d="M-93.45-671.198c-20.363,0-36.871,7.644-36.871,17.074
					c0,9.423,16.508,17.07,36.871,17.07c20.362,0,36.87-7.648,36.87-17.07C-56.58-663.554-73.088-671.198-93.45-671.198
					L-93.45-671.198z"/>
			</g>
		</mask>
		<g id="Group_3_" mask="url(#mask-2_2_)">
			<g transform="translate(0.000000, 13.000000)">
				<path id="Shape_28_" fill="#D81245" d="M-130.321-653.871c0,9.424,16.508,17.069,36.871,17.069
					c20.362,0,36.87-7.646,36.87-17.069c0-9.43-16.508-17.074-36.87-17.074C-113.813-670.945-130.321-663.301-130.321-653.871
					L-130.321-653.871z"/>
				<path id="Shape_29_" fill="#EB7A9F" d="M-121.422-653.871c0,7.148,12.523,12.949,27.972,12.949
					c15.447,0,27.971-5.802,27.971-12.949c0-7.156-12.523-12.954-27.971-12.954S-121.422-661.027-121.422-653.871L-121.422-653.871z
					"/>
				<ellipse id="Oval" fill="#D81245" cx="-93.451" cy="-653.871" rx="13.925" ry="6.446"/>
			</g>
		</g>
	</g>
	<g id="Group_4_" transform="translate(37.000000, 0.000000)" opacity="0.3">
		<g id="Shape_30_" transform="translate(13.000000, 48.000000)">
			<path fill="#D81245" d="M-125.797-606.11c-2.292-1.359-4.15-4.604-4.15-7.245v-54.708c0-2.64,1.858-3.679,4.15-2.319
				c2.292,1.36,4.15,4.603,4.15,7.244v54.71C-121.647-605.789-123.505-604.75-125.797-606.11L-125.797-606.11z"/>
		</g>
		<g id="Shape_31_" transform="translate(39.000000, 48.000000)">
			<path fill="#D81245" d="M-125.797-606.11c-2.292-1.359-4.15-4.604-4.15-7.245v-54.708c0-2.64,1.857-3.679,4.15-2.319
				c2.292,1.36,4.15,4.603,4.15,7.244v54.71C-121.647-605.789-123.505-604.75-125.797-606.11L-125.797-606.11z"/>
		</g>
		<g id="Shape_32_" transform="translate(0.000000, 75.000000)">
			<path fill="#D81245" d="M-126.103-648.105c-2.293-1.36-4.151-4.604-4.151-7.245v-12.722c0-2.639,1.858-3.678,4.151-2.318
				c2.292,1.359,4.149,4.603,4.149,7.245v12.722C-121.954-647.784-123.812-646.743-126.103-648.105L-126.103-648.105z"/>
		</g>
		<g id="Shape_33_" transform="translate(24.000000, 87.000000)">
			<path fill="#D81245" d="M-125.332-655.474c-2.293-1.36-4.15-4.606-4.15-7.245v-4.901c0-2.643,1.857-3.68,4.15-2.32
				c2.292,1.359,4.15,4.603,4.15,7.243v4.903C-121.182-655.154-123.041-654.115-125.332-655.474L-125.332-655.474z"/>
		</g>
		<g id="Shape_34_" transform="translate(24.000000, 0.000000)">
			<path fill="#D81245" d="M-125.332-584.833c-2.293-1.362-4.15-4.606-4.15-7.245v-75.673c0-2.641,1.857-3.679,4.15-2.319
				c2.292,1.359,4.15,4.603,4.15,7.243v75.673C-121.182-584.512-123.041-583.473-125.332-584.833L-125.332-584.833z"/>
		</g>
		<g id="Shape_35_" transform="translate(0.000000, 21.000000)">
			<path fill="#D81245" d="M-126.103-623.069c-2.293-1.36-4.151-4.607-4.151-7.245v-37.458c0-2.641,1.858-3.68,4.151-2.319
				c2.292,1.359,4.149,4.604,4.149,7.243v37.46C-121.954-622.748-123.812-621.709-126.103-623.069L-126.103-623.069z"/>
		</g>
	</g>
</g>
</svg>
