<?xml version="1.0" encoding="utf-8"?>
<!-- Generator: Adobe Illustrator 17.0.0, SVG Export Plug-In . SVG Version: 6.00 Build 0)  -->
<!DOCTYPE svg PUBLIC "-//W3C//DTD SVG 1.1//EN" "http://www.w3.org/Graphics/SVG/1.1/DTD/svg11.dtd">
<svg version="1.1" id="Layer_1" xmlns="http://www.w3.org/2000/svg" xmlns:xlink="http://www.w3.org/1999/xlink" x="0px" y="0px"
	 width="167.733px" height="103.564px" viewBox="-68.827 0 167.733 103.564" enable-background="new -68.827 0 167.733 103.564"
	 xml:space="preserve">
<g id="contact" transform="translate(821.000000, 480.000000)">
	<path id="Shape_84_" fill="#2E2C2C" d="M-722.094-446.358l-3.463,1.012l-47.804-27.918c-3.24-1.884-8.525-1.866-11.745,0.039
		l-101.474,59.42l-3.246-1.326v5.333h0.006c0.037,1.215,0.83,2.426,2.39,3.349l48.081,28.561c3.214,1.902,8.479,1.94,11.699,0.084
		l103.104-60.065c1.663-0.962,2.475-2.234,2.443-3.508l0.008-0.001L-722.094-446.358L-722.094-446.358z"/>
	<path id="Shape_85_" fill="#4E4A41" d="M-773.36-478.599c-3.24-1.886-8.525-1.864-11.745,0.039l-102.346,59.928
		c-3.175,1.88-3.166,4.96,0.021,6.847l48.081,28.562c3.214,1.902,8.479,1.941,11.699,0.084l103.104-60.066
		c3.266-1.886,3.266-4.983-0.002-6.884L-773.36-478.599L-773.36-478.599z"/>
	<path id="Shape_86_" fill="#2E2C2C" d="M-776.13-472.782c-2.679-1.559-7.053-1.543-9.716,0.033l-84.672,49.579
		c-2.627,1.555-2.618,4.103,0.019,5.665l39.778,23.628c2.66,1.573,7.015,1.604,9.678,0.068l85.299-49.691
		c2.702-1.56,2.701-4.123,0-5.696L-776.13-472.782L-776.13-472.782z"/>
	<path id="Shape_87_" fill="#FFFFFF" d="M-778.664-465.829c-1.479-0.859-3.895-0.85-5.366,0.019l-46.765,27.384
		c-1.452,0.858-1.446,2.266,0.01,3.128l21.97,13.05c1.469,0.869,3.875,0.887,5.345,0.038l47.111-27.444
		c1.492-0.862,1.492-2.277,0-3.147L-778.664-465.829L-778.664-465.829z"/>
	<path id="Shape_88_" fill="#FFD500" d="M-756.357-449.655c1.492-0.862,1.492-2.277,0-3.147l-22.305-13.027
		c-1.479-0.859-3.895-0.85-5.366,0.019l-2.964,1.735l28.123,15.884L-756.357-449.655L-756.357-449.655z"/>
	<ellipse id="Oval_12_" fill="#CE346B" cx="-781.484" cy="-464.074" rx="2.272" ry="1.053"/>
	<ellipse id="Oval_13_" fill="#B75CFF" cx="-777.255" cy="-461.555" rx="2.273" ry="1.052"/>
	<path id="Shape_89_" fill="#D7D7DC" d="M-773.682-450.042c0.935-0.542,0.935-1.429,0-1.973l-13.981-8.166
		c-0.927-0.539-2.441-0.533-3.363,0.012l-1.857,1.089l17.627,9.954L-773.682-450.042L-773.682-450.042z"/>
	<path id="Shape_90_" fill="#D7D7DC" d="M-776.414-443.401c0.935-0.54,0.935-1.429,0-1.972l-13.98-8.165
		c-0.927-0.54-2.441-0.534-3.364,0.012l-1.857,1.087l17.627,9.956L-776.414-443.401L-776.414-443.401z"/>
	<path id="Shape_91_" fill="#D7D7DC" d="M-783.635-439.216c0.936-0.54,0.935-1.429,0-1.972l-13.979-8.165
		c-0.927-0.539-2.441-0.533-3.364,0.012l-1.857,1.088l17.627,9.955L-783.635-439.216L-783.635-439.216z"/>
	<path id="Shape_92_" fill="#D7D7DC" d="M-790.854-435.032c0.935-0.54,0.935-1.428,0-1.972l-13.98-8.165
		c-0.928-0.54-2.441-0.535-3.364,0.012l-1.857,1.088l17.627,9.955L-790.854-435.032L-790.854-435.032z"/>
	<path id="Shape_93_" fill="#D7D7DC" d="M-805.691-426.046c0.574-0.332,0.574-0.876-0.001-1.211l-18.1-10.406
		c-0.569-0.33-1.5-0.328-2.067,0.008l-1.14,0.668l20.34,11.505L-805.691-426.046L-805.691-426.046z"/>
	<g id="Group_9_" transform="translate(22.000000, 16.000000)">
		<path id="Shape_94_" fill="#2E2C2C" d="M-889.729-419.93c0,1.72,3.012,3.113,6.729,3.113c3.716,0,6.728-1.394,6.728-3.113
			c0-1.723-3.012-3.117-6.728-3.117C-886.716-423.047-889.729-421.653-889.729-419.93L-889.729-419.93z"/>
		<ellipse id="Oval_14_" fill="#4E4A41" cx="-883" cy="-419.93" rx="4.566" ry="2.113"/>
		<path id="Oval_15_" fill="#2E2C2C" d="M-774.591-477.144c1.748,0,3.165-0.656,3.165-1.466c0-0.81-1.417-1.466-3.165-1.466
			s-3.165,0.656-3.165,1.466C-777.755-477.8-776.339-477.144-774.591-477.144z"/>
		<ellipse id="Oval_16_" fill="#4E4A41" cx="-774.591" cy="-478.61" rx="1.857" ry="0.859"/>
		<ellipse id="Oval_17_" fill="#2E2C2C" cx="-774.591" cy="-478.61" rx="0.88" ry="0.407"/>
	</g>
</g>
</svg>
