<?xml version="1.0" encoding="utf-8"?>
<!-- Generator: Adobe Illustrator 17.0.0, SVG Export Plug-In . SVG Version: 6.00 Build 0)  -->
<!DOCTYPE svg PUBLIC "-//W3C//DTD SVG 1.1//EN" "http://www.w3.org/Graphics/SVG/1.1/DTD/svg11.dtd">
<svg version="1.1" id="Layer_1" xmlns="http://www.w3.org/2000/svg" xmlns:xlink="http://www.w3.org/1999/xlink" x="0px" y="0px"
	 width="90.217px" height="60.431px" viewBox="0 0 90.217 60.431" enable-background="new 0 0 90.217 60.431" xml:space="preserve">
<g>
	<polygon fill="#DCDFDF" points="40.44,14.083 54.034,21.983 37.82,31.334 24.234,23.439 	"/>
	<g>
		<polygon fill="#B2B7B7" points="24.234,23.439 24.253,29.945 37.838,37.841 37.82,31.334 		"/>
	</g>
	<g>
		<path fill="#F7BC0E" d="M4.212,2.416c-5.589,3.227-5.618,8.454-0.074,11.676l9.881,5.742L34.242,8.159l-9.882-5.742
			C18.817-0.805,9.792-0.806,4.212,2.416z"/>
	</g>
	<path fill="#FAA70D" d="M0.035,8.717c0.013,0.149,0.024,0.299,0.051,0.447c0.022,0.123,0.06,0.244,0.092,0.366
		C0.215,9.673,0.25,9.814,0.3,9.955c0.042,0.117,0.097,0.232,0.147,0.348c0.064,0.148,0.129,0.297,0.208,0.443
		c0.057,0.106,0.126,0.211,0.191,0.316c0.103,0.167,0.213,0.333,0.335,0.497c0.072,0.097,0.151,0.192,0.23,0.288
		c0.183,0.22,0.385,0.436,0.603,0.648c0.08,0.077,0.152,0.156,0.236,0.232c0.136,0.122,0.287,0.241,0.436,0.359
		c0.132,0.106,0.259,0.213,0.4,0.316c0.161,0.117,0.338,0.228,0.512,0.342c0.179,0.116,0.348,0.236,0.541,0.348l9.881,5.742
		l0.018,6.506l-9.881-5.742c-0.059-0.034-0.116-0.068-0.174-0.103c-0.131-0.079-0.243-0.164-0.367-0.245
		c-0.174-0.113-0.351-0.225-0.512-0.342c-0.141-0.102-0.267-0.209-0.399-0.315c-0.149-0.12-0.301-0.238-0.438-0.361
		c-0.027-0.025-0.06-0.048-0.087-0.072c-0.055-0.051-0.094-0.106-0.147-0.158c-0.219-0.213-0.421-0.429-0.604-0.65
		c-0.04-0.048-0.094-0.093-0.132-0.142c-0.037-0.048-0.062-0.098-0.098-0.146c-0.122-0.164-0.231-0.33-0.335-0.497
		c-0.043-0.07-0.1-0.138-0.14-0.208c-0.02-0.035-0.031-0.072-0.051-0.108c-0.079-0.147-0.143-0.295-0.208-0.443
		c-0.038-0.087-0.089-0.172-0.122-0.259c-0.011-0.029-0.015-0.059-0.026-0.089c-0.05-0.141-0.084-0.283-0.122-0.425
		c-0.025-0.096-0.063-0.192-0.083-0.288c-0.005-0.026-0.004-0.051-0.009-0.077c-0.027-0.149-0.038-0.298-0.051-0.447
		c-0.009-0.098-0.031-0.195-0.033-0.293c-0.001-0.042-0.002-0.083-0.002-0.125L0,8.299C0,8.439,0.023,8.578,0.035,8.717z"/>
	<g>
		<polygon fill="#FAA70D" points="14.019,19.835 14.038,26.341 34.261,14.665 34.242,8.159 		"/>
	</g>
	<g>
		<g>
			<polygon fill="#40403F" points="38.894,21.026 41.232,22.385 46.294,19.462 43.956,18.104 			"/>
		</g>
		<g>
			<polygon fill="#40403F" points="31.156,25.494 33.494,26.852 38.556,23.929 36.219,22.571 			"/>
		</g>
	</g>
	<g>
		<polygon fill="#767878" points="37.82,31.334 37.838,37.841 54.053,28.489 54.034,21.983 		"/>
	</g>
	<g>
		<path fill="#F7BC0E" d="M35.807,32.496l30.04,17.458c5.553,3.227,14.577,3.227,20.166,0c5.58-3.222,5.61-8.449,0.057-11.676
			L56.03,20.821l-2.004,1.157l-16.197,9.361L35.807,32.496z"/>
	</g>
	<path fill="#FAA70D" d="M65.848,49.954c0.619,0.36,1.295,0.665,1.99,0.944c0.183,0.073,0.369,0.143,0.556,0.211
		c0.432,0.157,0.885,0.282,1.338,0.409c0.469,0.132,0.942,0.255,1.428,0.355c0.57,0.117,1.144,0.224,1.73,0.297
		c0.142,0.018,0.282,0.044,0.424,0.059c0.792,0.085,1.594,0.126,2.397,0.133c0.127,0.001,0.255,0.003,0.382,0.002
		c0.792-0.006,1.584-0.05,2.366-0.131c0.119-0.012,0.237-0.026,0.355-0.04c0.777-0.093,1.543-0.224,2.29-0.393
		c0.138-0.031,0.273-0.067,0.409-0.1c0.679-0.168,1.338-0.37,1.976-0.601c0.115-0.042,0.238-0.075,0.352-0.119
		c0.765-0.296,1.497-0.635,2.174-1.026c2.807-1.621,4.209-3.749,4.204-5.874l0.018,6.506c0.006,2.126-1.397,4.254-4.204,5.875
		c-0.644,0.372-1.334,0.701-2.059,0.987c-0.037,0.015-0.078,0.024-0.115,0.039c-0.114,0.044-0.235,0.077-0.351,0.119
		c-0.416,0.151-0.832,0.304-1.266,0.428c-0.232,0.066-0.474,0.116-0.711,0.174c-0.137,0.034-0.27,0.069-0.408,0.1
		c-0.124,0.028-0.243,0.064-0.368,0.09c-0.465,0.096-0.937,0.178-1.413,0.246c-0.168,0.024-0.34,0.037-0.509,0.057
		c-0.119,0.014-0.236,0.027-0.355,0.04c-0.175,0.018-0.347,0.044-0.522,0.058c-0.466,0.038-0.935,0.063-1.404,0.075
		c-0.147,0.004-0.293-0.003-0.44-0.002c-0.128,0.001-0.254-0.001-0.382-0.002c-0.213-0.002-0.425,0.004-0.637-0.003
		c-0.529-0.018-1.057-0.053-1.581-0.105c-0.06-0.006-0.119-0.018-0.179-0.025c-0.143-0.015-0.282-0.041-0.424-0.059
		c-0.407-0.051-0.816-0.097-1.216-0.169c-0.177-0.032-0.34-0.092-0.515-0.128c-0.488-0.101-0.958-0.224-1.428-0.356
		c-0.248-0.07-0.514-0.11-0.756-0.188c-0.2-0.065-0.386-0.149-0.581-0.22c-0.188-0.068-0.372-0.137-0.556-0.211
		c-0.696-0.28-1.371-0.584-1.99-0.944l-30.04-17.458l-0.018-6.506L65.848,49.954z"/>
</g>
</svg>
