<?xml version="1.0" encoding="utf-8"?>
<!-- Generator: Adobe Illustrator 17.0.0, SVG Export Plug-In . SVG Version: 6.00 Build 0)  -->
<!DOCTYPE svg PUBLIC "-//W3C//DTD SVG 1.1//EN" "http://www.w3.org/Graphics/SVG/1.1/DTD/svg11.dtd">
<svg version="1.1" id="Layer_1" xmlns="http://www.w3.org/2000/svg" xmlns:xlink="http://www.w3.org/1999/xlink" x="0px" y="0px"
	 width="172.929px" height="380.496px" viewBox="0 0 172.929 380.496" enable-background="new 0 0 172.929 380.496"
	 xml:space="preserve">
<g>
	<g id="Shape_10_" transform="translate(0.000000, 274.000000)">
		<polyline fill="#EB367F" points="99.217,22.616 99.217,33.676 92.724,38.107 89.842,33.673 91.728,29.156 		"/>
		<g>
			<path fill="#A3002F" d="M99.219,33.68c0,12.68-22.21,22.96-49.61,22.96c-27.4,0-49.61-10.28-49.61-22.96
				c0-0.34,0.02-0.67,0.04-1.01l-0.11-10.05l3.27,2.85c-0.35,0.41-0.66,0.87-0.95,1.35c0.31-0.46,0.65-0.91,1.02-1.35
				c7.13-8.63,25.19-14.76,46.34-14.76c21.08,0,39.1,6.09,46.27,14.68l3.05-2.77v8.57C99.119,32.01,99.219,32.84,99.219,33.68z"/>
			<path fill="#D81245" d="M0,22.616c0,12.681,22.211,22.967,49.609,22.967s49.608-10.286,49.608-22.967
				c0-12.685-22.211-22.967-49.608-22.967C22.211-0.351,0,9.931,0,22.616L0,22.616z"/>
		</g>
	</g>
	<ellipse id="Oval_8_" fill="#FF557B" cx="49.609" cy="294.793" rx="22.979" ry="10.637"/>
	<polygon id="Shape_9_" fill="#FF557B" points="26.63,170.053 26.63,294.793 48.587,294.79 72.587,294.793 72.587,170.053 
		49.609,172.445 	"/>
	<path id="Shape_8_" fill="#FF768A" d="M26.63,170.053c0,5.876,10.289,10.632,22.979,10.632s22.978-4.756,22.978-10.632
		c0-5.878-10.289-10.637-22.978-10.637C36.919,159.416,26.63,164.175,26.63,170.053L26.63,170.053z"/>
	<path id="Shape_7_" fill="#D81245" d="M35.063,170.053c0,3.719,6.513,6.73,14.546,6.73s14.545-3.011,14.545-6.73
		c0-3.721-6.512-6.733-14.545-6.733S35.063,166.331,35.063,170.053L35.063,170.053z"/>
	<path id="Shape_6_" fill="#CCCCCC" d="M101.735,62.032c0,0.139,0.033,6.406,0.04,6.543c5.384-0.486,10.784-0.307,16.181-0.286
		c0.001-0.04,0.012-0.078,0.012-0.119V32.24c0-2.891-1.538-5.564-4.038-7.018L72.096,0.905c-1.167-0.677-2.486-1.054-3.837-1.094
		C61.244-0.4,55.119,1.866,50.504,6.36c-8.799,8.564-9.016,22.12-9.011,23.615v140.078c0,0.167,0.04,0.328,0.051,0.493
		c5.398-0.26,10.789-0.649,16.183-0.99V29.953c-0.004-1.678,0.676-8.63,4.099-11.961c0.732-0.714,1.914-1.608,4.129-1.88
		l35.781,20.797L101.735,62.032L101.735,62.032z"/>
	<ellipse id="Oval_7_" fill="#CCCCCC" cx="49.609" cy="170.053" rx="8.117" ry="3.757"/>
	<path id="Shape_5_" opacity="0.3" fill="#FFFFFF" enable-background="new    " d="M45.248,113.894v240.394
		c0,11.411,14.003,21.306,34.488,26.208l-0.005-15.746c59.787,15.746,92.919-14.417,92.919-44.051V113.894H45.248L45.248,113.894z"
		/>
	<path id="Shape_4_" fill="#FF557B" d="M45.248,114.662c0,16.284,28.522,29.481,63.701,29.481c35.18,0,63.701-13.197,63.701-29.481
		c0-16.292-28.522-29.491-63.701-29.491S45.248,98.371,45.248,114.662L45.248,114.662z"/>
	<path id="Shape_3_" fill="#D81245" d="M54.118,109.177c0,14.015,24.549,25.377,54.83,25.377c30.28,0,54.831-11.362,54.831-25.377
		c0-14.024-24.55-25.384-54.831-25.384C78.668,83.793,54.118,95.153,54.118,109.177L54.118,109.177z"/>
	<path id="Shape_2_" fill="#D81245" d="M163.779,109.175c0-14.025-19.597-46.493-54.831-46.493c-36.362,0-54.83,32.468-54.83,46.493
		"/>
	<ellipse id="Oval_6_" fill="#C41B48" cx="109.851" cy="68.373" rx="12.15" ry="5.624"/>
	<ellipse id="Oval_1_" fill="#CCCCCC" cx="109.851" cy="68.373" rx="8.116" ry="3.756"/>
	<path id="Shape_1_" fill="#CCCCCC" d="M101.735,44.716v17.316c0,0.139,0.033,6.406,0.04,6.543
		c5.384-0.486,10.784-0.307,16.181-0.286c0.001-0.04,0.012-0.078,0.012-0.119V45.107C112.558,44.953,107.146,44.815,101.735,44.716
		L101.735,44.716z"/>
</g>
<g id="Shape_61_" transform="translate(64.000000, 144.000000)" opacity="0.3">
	<g transform="translate(0.000000, 8.000000)">
		<path fill="#CCCCCC" d="M4.51,143.275c-2.467,0-4.466-2.047-4.466-4.572V3.709c0-2.525,2-4.574,4.466-4.574
			s4.467,2.049,4.467,4.574v134.993C8.976,141.227,6.976,143.275,4.51,143.275L4.51,143.275z"/>
	</g>
	<g transform="translate(50.000000, 15.000000)">
		<path fill="#CCCCCC" d="M4.355,56.16c-2.467,0-4.467-2.049-4.467-4.575V3.879c0-2.525,2-4.571,4.467-4.571
			c2.466,0,4.466,2.046,4.466,4.571v47.706C8.821,54.111,6.821,56.16,4.355,56.16L4.355,56.16z"/>
	</g>
	<g transform="translate(50.000000, 95.000000)">
		<path fill="#CCCCCC" d="M4.355,76.932c-2.467,0-4.467-2.05-4.467-4.575V3.691c0-2.528,2-4.575,4.467-4.575
			c2.466,0,4.466,2.047,4.466,4.575v68.665C8.821,74.881,6.821,76.932,4.355,76.932L4.355,76.932z"/>
	</g>
	<g transform="translate(76.000000, 40.000000)">
		<path fill="#CCCCCC" d="M3.984,76.893c-2.466,0-4.466-2.046-4.466-4.572V3.654c0-2.524,1.999-4.573,4.466-4.573
			c2.466,0,4.467,2.049,4.467,4.573v68.667C8.45,74.847,6.45,76.893,3.984,76.893L3.984,76.893z"/>
	</g>
	<g transform="translate(91.000000, 0.000000)">
		<path fill="#CCCCCC" d="M4.403,46.763c-2.466,0-4.466-2.046-4.466-4.571V3.779c0-2.527,2-4.574,4.466-4.574
			s4.466,2.047,4.466,4.574v38.413C8.869,44.717,6.869,46.763,4.403,46.763L4.403,46.763z"/>
	</g>
	<g transform="translate(91.000000, 117.000000)">
		<path fill="#CCCCCC" d="M4.403,46.936c-2.466,0-4.466-2.05-4.466-4.575V3.95c0-2.528,2-4.575,4.466-4.575S8.869,1.422,8.869,3.95
			v38.411C8.869,44.886,6.869,46.936,4.403,46.936L4.403,46.936z"/>
	</g>
	<g transform="translate(25.000000, 8.000000)">
		<path fill="#CCCCCC" d="M4.816,194.824c-2.466,0-4.466-2.046-4.466-4.573V3.709c0-2.525,2.001-4.574,4.466-4.574
			c2.466,0,4.466,2.049,4.466,4.574v186.542C9.282,192.778,7.283,194.824,4.816,194.824L4.816,194.824z"/>
	</g>
</g>
</svg>
