<?xml version="1.0" encoding="utf-8"?>
<!-- Generator: Adobe Illustrator 17.0.0, SVG Export Plug-In . SVG Version: 6.00 Build 0)  -->
<!DOCTYPE svg PUBLIC "-//W3C//DTD SVG 1.1//EN" "http://www.w3.org/Graphics/SVG/1.1/DTD/svg11.dtd">
<svg version="1.1" id="Layer_1" xmlns="http://www.w3.org/2000/svg" xmlns:xlink="http://www.w3.org/1999/xlink" x="0px" y="0px"
	 width="184.877px" height="140.504px" viewBox="0 0 184.877 140.504" enable-background="new 0 0 184.877 140.504"
	 xml:space="preserve">
<g>
	<g enable-background="new    ">
		<path fill="#BBBCBD" d="M139.922,51.892l-0.031-10.84L93.032,13.821C74.054,2.792,43.07,2.792,23.971,13.819
			c-9.611,5.549-14.411,12.85-14.39,20.14l0.014,4.912c-0.002,0.121-0.014,0.241-0.014,0.362l0.031,10.839
			c-0.021-7.29,4.78-14.591,14.39-20.14c19.099-11.027,50.083-11.027,69.061,0.002l46.859,27.232l-0.015-5.283L139.922,51.892z"/>
		<path fill="#5A5C5E" d="M75.822,13.605c0-2.522-1.821-4.694-4.312-5.09c-16.367-2.604-34.653-0.204-47.54,7.236
			C14.36,21.299,9.56,28.6,9.581,35.89l0.014,4.912c-0.002,0.121-0.014,0.241-0.014,0.361l0.014,4.786
			c0.133-7.172,4.921-14.328,14.377-19.787c12.496-7.215,30.07-9.69,46.048-7.459C73.093,19.133,75.822,16.709,75.822,13.605
			L75.822,13.605z"/>
		<path fill="#6D7071" d="M76.505,15.652c0-2.522-1.821-4.694-4.312-5.09c-16.367-2.604-34.654-0.204-47.54,7.236
			c-9.611,5.549-14.411,12.85-14.39,20.14l0.014,4.912c-0.002,0.121-0.014,0.241-0.014,0.361l0.014,4.786
			c0.133-7.172,4.921-14.328,14.377-19.787c12.496-7.215,30.07-9.69,46.048-7.459C73.776,21.18,76.505,18.756,76.505,15.652
			L76.505,15.652z"/>
		<path fill="#BBBCBD" d="M63.785,95.85L63.754,85.01L16.971,57.823C5.677,51.26,0.024,42.653,0,34.033l0.016,5.64
			C0.013,39.551,0,39.429,0,39.307l0.031,10.839c0.024,8.62,5.678,17.227,16.971,23.79l46.783,27.188l-0.015-5.283L63.785,95.85z"/>
		<g>
			<path fill="#E8E8E8" d="M17.241,9.908c-22.882,13.211-23.003,34.704-0.27,47.915L63.754,85.01l6.853-3.957L23.749,53.822
				C4.77,42.793,4.872,24.846,23.971,13.819C43.07,2.792,74.054,2.792,93.032,13.821l46.859,27.232l6.853-3.957L99.961,9.908
				C77.228-3.303,40.122-3.303,17.241,9.908z"/>
		</g>
	</g>
	<g>
		<g>
			<path fill="#45B6BB" d="M88.03,74.642c-6.101-3.522-11.629-3.849-15.62-1.53L58.131,81.41c3.991-2.32,9.519-1.993,15.62,1.53
				c12.123,6.999,21.917,23.966,21.878,37.894c-0.02,6.921-2.463,11.791-6.403,14.081l14.279-8.298
				c3.94-2.29,6.384-7.16,6.403-14.081C109.947,98.608,100.153,81.642,88.03,74.642z"/>
			<g>
				<path fill="#45B6BB" d="M73.751,82.94c12.123,6.999,21.917,23.966,21.878,37.894c-0.039,13.931-9.897,19.551-22.021,12.552
					c-12.123-7-21.919-23.967-21.88-37.898C51.768,81.559,61.628,75.941,73.751,82.94z"/>
			</g>
		</g>
		<g>
			<path fill="#E8E8E8" d="M80.584,78.945c-6.101-3.522-11.629-3.849-15.62-1.53l-10.959,6.378c3.992-2.32,9.519-1.993,15.62,1.53
				c12.124,7,21.917,23.966,21.878,37.894c-0.019,6.921-2.463,11.791-6.403,14.081l10.959-6.378c3.94-2.29,6.384-7.16,6.403-14.081
				C102.501,102.911,92.707,85.945,80.584,78.945z"/>
			<g>
				<path fill="#989A9C" d="M69.625,85.323c12.124,7,21.917,23.966,21.878,37.894c-0.039,13.931-9.897,19.551-22.021,12.552
					c-12.124-6.999-21.92-23.967-21.88-37.898C47.641,83.942,57.501,78.323,69.625,85.323z"/>
			</g>
		</g>
		<g>
			<path fill="#E8E8E8" d="M68.812,85.843c-6.101-3.523-11.629-3.85-15.621-1.53l-2.077,1.207c3.991-2.32,9.519-1.992,15.621,1.53
				c12.121,6.998,21.917,23.963,21.878,37.894c-0.02,6.92-2.463,11.789-6.402,14.078l2.077-1.207
				c3.94-2.29,6.383-7.158,6.402-14.078C90.729,109.806,80.933,92.841,68.812,85.843z"/>
			<g>
				<path fill="#BBBCBD" d="M66.735,87.05c12.121,6.998,21.917,23.963,21.878,37.894c-0.039,13.931-9.9,19.547-22.021,12.549
					c-12.123-7-21.919-23.964-21.88-37.895S54.611,80.051,66.735,87.05z"/>
			</g>
		</g>
	</g>
	<g>
		<path fill="#E8E8E8" d="M162.999,29.736c-6.101-3.523-11.629-3.849-15.62-1.53l-11.247,5.876c3.991-2.32,9.519-1.993,15.62,1.53
			c12.123,7,21.917,23.966,21.878,37.894c-0.02,6.921-2.463,11.791-6.403,14.081l11.247-5.876c3.941-2.29,6.384-7.16,6.403-14.081
			C184.916,53.701,175.122,36.735,162.999,29.736z"/>
		<path fill="#989A9C" d="M159.537,31.528c-6.101-3.522-11.629-3.849-15.62-1.53l-11.247,5.876c3.992-2.319,9.519-1.993,15.62,1.53
			c12.124,7,21.917,23.966,21.878,37.894c-0.019,6.921-2.463,11.791-6.403,14.081l11.248-5.876c3.94-2.29,6.384-7.16,6.403-14.081
			C181.454,55.494,171.66,38.528,159.537,31.528z"/>
		<path fill="#E8E8E8" d="M158.499,32.073c-6.101-3.522-11.629-3.849-15.62-1.53l-11.247,5.876c3.991-2.32,9.519-1.993,15.62,1.529
			c12.124,7,21.917,23.966,21.878,37.894c-0.02,6.921-2.463,11.791-6.403,14.081l11.248-5.876c3.94-2.29,6.384-7.16,6.403-14.081
			C180.416,56.038,170.622,39.072,158.499,32.073z"/>
		<path fill="#45B6BB" d="M147.822,37.596c-6.101-3.522-11.629-3.849-15.62-1.529l-10.153,5.876c3.991-2.32,9.519-1.993,15.62,1.53
			c12.123,6.999,21.917,23.966,21.878,37.894c-0.02,6.921-2.463,11.791-6.403,14.081l10.153-5.876
			c3.94-2.29,6.384-7.16,6.403-14.081C169.739,61.562,159.946,44.595,147.822,37.596z"/>
		<g>
			<path fill="#189E98" d="M137.669,43.472c12.123,6.999,21.917,23.966,21.878,37.894c-0.04,13.931-9.897,19.551-22.021,12.552
				c-12.123-7-21.919-23.967-21.88-37.898C115.686,42.091,125.546,36.472,137.669,43.472z"/>
		</g>
		<g>
			<path fill="#45B6BB" d="M137.65,50.174c8.902,5.14,16.093,17.597,16.064,27.825c-0.029,10.229-7.268,14.356-16.17,9.217
				c-8.902-5.14-16.095-17.599-16.066-27.828C121.508,49.16,128.748,45.034,137.65,50.174z"/>
		</g>
		<g>
			<path fill="#189E98" d="M137.637,54.593c6.778,3.913,12.254,13.399,12.232,21.186c-0.022,7.788-5.534,10.931-12.312,7.017
				s-12.255-13.4-12.233-21.188C125.346,53.821,130.859,50.679,137.637,54.593z"/>
		</g>
	</g>
</g>
</svg>
