<?xml version="1.0" encoding="utf-8"?>
<!-- Generator: Adobe Illustrator 17.0.0, SVG Export Plug-In . SVG Version: 6.00 Build 0)  -->
<!DOCTYPE svg PUBLIC "-//W3C//DTD SVG 1.1//EN" "http://www.w3.org/Graphics/SVG/1.1/DTD/svg11.dtd">
<svg version="1.1" id="Layer_1" xmlns="http://www.w3.org/2000/svg" xmlns:xlink="http://www.w3.org/1999/xlink" x="0px" y="0px"
	 width="371.617px" height="381.042px" viewBox="-141.094 0 371.617 381.042" enable-background="new -141.094 0 371.617 381.042"
	 xml:space="preserve">
<g>
	<g id="Shape_95_">
		<path fill="#FFFFFF" d="M88.667,153.021c0,9.865-5.999,21.394-13.398,25.749l-200.661,118.103
			c-7.399,4.352-13.397-0.115-13.397-9.981V145.874c0-9.866,5.998-21.393,13.397-25.748L75.269,2.024
			c7.399-4.355,13.398,0.111,13.398,9.977V153.021L88.667,153.021z"/>
		<path fill="#4E4A41" d="M75.269,2.025l-200.661,118.101c-7.399,4.354-13.397,15.882-13.397,25.748v141.018
			c0,1.106,0.086,2.135,0.23,3.098l227.02-133.822c0.125-1.06,0.205-2.114,0.205-3.147V12.001
			C88.667,2.136,82.668-2.331,75.269,2.025L75.269,2.025z"/>
		<path fill="#B3B7BE" d="M80.676,1.514L80.676,1.514c4.151,0,6.833,4.117,6.833,10.488v141.02c0,9.484-5.755,20.587-12.827,24.75
			L-125.98,295.873c-1.7,1.002-3.32,1.509-4.816,1.509c-4.151,0-6.833-4.117-6.833-10.49V145.874c0-9.484,5.753-20.588,12.825-24.75
			L75.858,3.022C77.556,2.022,79.178,1.514,80.676,1.514L80.676,1.514z M80.676,0.356c-1.654,0-3.484,0.537-5.407,1.669
			l-200.661,118.101c-7.399,4.354-13.397,15.882-13.397,25.748v141.018c0,7.303,3.285,11.646,7.993,11.646
			c1.652,0,3.481-0.535,5.405-1.666L75.27,178.769c7.399-4.355,13.398-15.884,13.398-25.749V12
			C88.667,4.7,85.381,0.356,80.676,0.356L80.676,0.356L80.676,0.356z"/>
		<path fill="#BCB7BB" d="M-123.606,300.409v6.132l3.394,2.669l2.02-1.298c0,0-0.217-0.72,0-1.01c0.215-0.288,0.216-1.808,0-2.094
			C-118.409,304.523-123.606,300.409-123.606,300.409L-123.606,300.409z"/>
		<path fill="#BCB7BB" d="M101.791,189.89c-7.898-4.212-20.581-4.169-28.183,0.089l-191.94,109.843
			c-7.498,4.199-7.27,11.083,0.506,15.305l115.254,62.669c7.841,4.254,20.479,4.339,28.08,0.188l185.495-116.457
			c7.711-4.213,7.503-11.139-0.464-15.389L101.791,189.89L101.791,189.89z"/>
		<path fill="#FFFFFF" d="M107.49,175.834c-7.772-4.521-20.458-4.476-28.187,0.095l-197.22,116.657
			c-7.622,4.509-7.601,11.901,0.049,16.431l115.391,68.541c7.713,4.568,20.349,4.656,28.076,0.201l199.047-116.984
			c7.839-4.523,7.836-11.959-0.006-16.521L107.49,175.834L107.49,175.834z"/>
		<path fill="#C7C3B7" d="M104.102,183.349c-6.969-4.055-18.352-4.014-25.283,0.087l-181.276,107.523
			c-6.838,4.045-6.82,10.675,0.045,14.738l60.507,34.735c6.92,4.096,18.255,4.179,25.186,0.18l182.912-107.816
			c7.033-4.057,7.03-10.728-0.003-14.82L104.102,183.349L104.102,183.349z"/>
		<path fill="#C7C3B7" d="M132.755,270.341c-2.501-1.455-6.586-1.441-9.073,0.029l-65.037,38.579
			c-2.453,1.451-2.446,3.83,0.017,5.288l21.709,12.462c2.481,1.469,6.548,1.497,9.036,0.064l65.625-38.683
			c2.522-1.453,2.521-3.847-0.003-5.315L132.755,270.341L132.755,270.341z"/>
		<g>
			<path fill="#4E4A41" d="M155.029,282.765l-6.511-3.631l-74.27,44.05l6.122,3.515c2.481,1.469,6.548,1.497,9.036,0.064
				l65.625-38.683C157.554,286.626,157.553,284.233,155.029,282.765L155.029,282.765z"/>
			<path fill="#4E4A41" d="M113.305,248.4l-8.913-4.97L2.71,303.74l8.382,4.81c3.399,2.013,8.964,2.052,12.37,0.09l89.847-52.96
				C116.761,253.688,116.761,250.412,113.305,248.4L113.305,248.4z"/>
			<g transform="translate(36.000000, 185.000000)">
				<path fill="#4E4A41" d="M-136.718,113.982l1.711,0.888l13.016-7.783l-1.353-0.78c-2.292-1.356-6.047-1.38-8.344-0.058
					l-5.033,2.822C-139.049,110.416-139.049,112.626-136.718,113.982L-136.718,113.982z"/>
				<path fill="#4E4A41" d="M-118.787,103.409l1.709,0.885l13.016-7.783l-1.352-0.778c-2.291-1.359-6.047-1.384-8.344-0.058
					l-5.032,2.822C-121.119,99.842-121.118,102.053-118.787,103.409L-118.787,103.409z"/>
				<path fill="#4E4A41" d="M-100.857,92.832l1.71,0.889l13.016-7.783l-1.352-0.78c-2.291-1.358-6.047-1.383-8.344-0.057
					l-5.032,2.821C-103.189,89.266-103.189,91.476-100.857,92.832L-100.857,92.832z"/>
				<path fill="#4E4A41" d="M-82.928,82.257l1.712,0.889l13.015-7.785l-1.352-0.779c-2.292-1.357-6.047-1.382-8.343-0.058
					l-5.034,2.823C-85.26,78.692-85.259,80.902-82.928,82.257L-82.928,82.257z"/>
				<path fill="#4E4A41" d="M-64.998,71.682l1.711,0.889l13.016-7.783l-1.354-0.779c-2.292-1.357-6.045-1.384-8.343-0.058
					L-65,66.772C-67.329,68.117-67.328,70.327-64.998,71.682L-64.998,71.682z"/>
				<path fill="#4E4A41" d="M-47.067,61.109l1.71,0.886l13.016-7.784l-1.353-0.777c-2.292-1.358-6.045-1.384-8.343-0.059
					l-5.033,2.823C-49.399,57.542-49.399,59.752-47.067,61.109L-47.067,61.109z"/>
				<path fill="#4E4A41" d="M-29.136,50.533l1.711,0.889l13.015-7.783l-1.355-0.78c-2.292-1.357-6.044-1.384-8.342-0.057
					l-5.034,2.821C-31.469,46.968-31.469,49.178-29.136,50.533L-29.136,50.533z"/>
				<path fill="#4E4A41" d="M-11.207,39.959l1.709,0.888l13.015-7.783l-1.351-0.779c-2.291-1.358-6.046-1.384-8.342-0.059
					l-5.034,2.823C-13.54,36.392-13.54,38.602-11.207,39.959L-11.207,39.959z"/>
				<path fill="#4E4A41" d="M6.724,29.384l1.708,0.888l13.018-7.783l-1.354-0.779c-2.289-1.358-6.044-1.384-8.341-0.059
					l-5.033,2.824C4.391,25.818,4.391,28.028,6.724,29.384L6.724,29.384z"/>
				<path fill="#4E4A41" d="M24.653,18.81l1.711,0.887l13.016-7.783l-1.355-0.779c-2.29-1.357-6.046-1.383-8.342-0.058l-5.033,2.822
					C22.321,15.244,22.321,17.453,24.653,18.81L24.653,18.81z"/>
				<path fill="#4E4A41" d="M42.586,8.234l1.707,0.889L57.311,1.34l-1.353-0.78c-2.289-1.357-6.046-1.383-8.343-0.057l-5.031,2.823
					C40.253,4.669,40.253,6.878,42.586,8.234L42.586,8.234z"/>
			</g>
			<g transform="translate(46.000000, 191.000000)">
				<path fill="#4E4A41" d="M-136.33,114.014l6.013,3.354l13.015-7.782l-5.653-3.246c-2.29-1.357-6.046-1.383-8.343-0.058
					l-5.032,2.822C-138.661,110.45-138.661,112.658-136.33,114.014L-136.33,114.014z"/>
				<path fill="#4E4A41" d="M-118.399,103.438l6.012,3.352l13.016-7.781l-5.653-3.245c-2.292-1.357-6.048-1.384-8.344-0.059
					l-5.033,2.826C-120.73,99.874-120.73,102.082-118.399,103.438L-118.399,103.438z"/>
				<path fill="#4E4A41" d="M-100.469,92.867l6.011,3.352l13.015-7.783l-5.653-3.246c-2.291-1.357-6.047-1.384-8.343-0.055
					l-5.032,2.822C-102.8,89.296-102.799,91.508-100.469,92.867L-100.469,92.867z"/>
				<path fill="#4E4A41" d="M-82.538,82.289l6.012,3.354l13.014-7.784l-5.653-3.245c-2.29-1.357-6.047-1.382-8.343-0.058
					l-5.033,2.823C-84.871,78.723-84.87,80.934-82.538,82.289L-82.538,82.289z"/>
				<path fill="#4E4A41" d="M-64.609,71.713l6.013,3.354l13.014-7.782l-5.653-3.245c-2.29-1.358-6.046-1.384-8.343-0.059
					l-5.033,2.823C-66.941,68.148-66.94,70.359-64.609,71.713L-64.609,71.713z"/>
				<path fill="#4E4A41" d="M-46.679,61.141l6.012,3.352l13.016-7.784l-5.654-3.244c-2.292-1.357-6.047-1.384-8.343-0.059
					l-5.034,2.823C-49.01,57.573-49.01,59.783-46.679,61.141L-46.679,61.141z"/>
				<path fill="#4E4A41" d="M-28.749,50.564l6.012,3.354l13.015-7.785l-5.654-3.245c-2.292-1.357-6.047-1.383-8.343-0.056
					l-5.034,2.821C-31.082,46.999-31.082,49.209-28.749,50.564L-28.749,50.564z"/>
				<path fill="#4E4A41" d="M-10.82,39.991l6.013,3.354l13.016-7.784l-5.654-3.244c-2.291-1.359-6.046-1.384-8.343-0.059
					l-5.034,2.822C-13.151,36.423-13.151,38.633-10.82,39.991L-10.82,39.991z"/>
				<path fill="#4E4A41" d="M7.112,29.415l6.01,3.354l13.016-7.783l-5.654-3.244c-2.29-1.358-6.046-1.384-8.343-0.059l-5.032,2.823
					C4.78,25.85,4.78,28.06,7.112,29.415L7.112,29.415z"/>
				<path fill="#4E4A41" d="M25.041,18.84l6.012,3.354l13.015-7.782l-5.653-3.246c-2.292-1.357-6.046-1.383-8.342-0.057
					l-5.035,2.822C22.71,15.275,22.71,17.485,25.041,18.84L25.041,18.84z"/>
				<path fill="#4E4A41" d="M42.972,8.266l6.01,3.354L62,3.837l-5.653-3.246c-2.293-1.357-6.049-1.383-8.345-0.058l-5.034,2.823
					C40.639,4.699,40.639,6.909,42.972,8.266L42.972,8.266z"/>
			</g>
			<g transform="translate(46.000000, 191.000000)">
				<path fill="#4E4A41" d="M-136.33,114.014l6.013,3.354l13.015-7.782l-5.653-3.246c-2.29-1.357-6.046-1.383-8.343-0.058
					l-5.032,2.822C-138.661,110.45-138.661,112.658-136.33,114.014L-136.33,114.014z"/>
				<path fill="#4E4A41" d="M-118.399,103.438l6.012,3.352l13.016-7.781l-5.653-3.245c-2.292-1.357-6.048-1.384-8.344-0.059
					l-5.033,2.826C-120.73,99.874-120.73,102.082-118.399,103.438L-118.399,103.438z"/>
				<path fill="#4E4A41" d="M-100.469,92.867l6.011,3.352l13.015-7.783l-5.653-3.246c-2.291-1.357-6.047-1.384-8.343-0.055
					l-5.032,2.822C-102.8,89.296-102.799,91.508-100.469,92.867L-100.469,92.867z"/>
				<path fill="#4E4A41" d="M-82.538,82.289l6.012,3.354l13.014-7.784l-5.653-3.245c-2.29-1.357-6.047-1.382-8.343-0.058
					l-5.033,2.823C-84.871,78.723-84.87,80.934-82.538,82.289L-82.538,82.289z"/>
				<path fill="#4E4A41" d="M-64.609,71.713l6.013,3.354l13.014-7.782l-5.653-3.245c-2.29-1.358-6.046-1.384-8.343-0.059
					l-5.033,2.823C-66.941,68.148-66.94,70.359-64.609,71.713L-64.609,71.713z"/>
				<path fill="#4E4A41" d="M-46.679,61.141l6.012,3.352l13.016-7.784l-5.654-3.244c-2.292-1.357-6.047-1.384-8.343-0.059
					l-5.034,2.823C-49.01,57.573-49.01,59.783-46.679,61.141L-46.679,61.141z"/>
				<path fill="#4E4A41" d="M-28.749,50.564l6.012,3.354l13.015-7.785l-5.654-3.245c-2.292-1.357-6.047-1.383-8.343-0.056
					l-5.034,2.821C-31.082,46.999-31.082,49.209-28.749,50.564L-28.749,50.564z"/>
				<path fill="#4E4A41" d="M-10.82,39.991l6.013,3.354l13.016-7.784l-5.654-3.244c-2.291-1.359-6.046-1.384-8.343-0.059
					l-5.034,2.822C-13.151,36.423-13.151,38.633-10.82,39.991L-10.82,39.991z"/>
				<path fill="#4E4A41" d="M7.112,29.415l6.01,3.354l13.016-7.783l-5.654-3.244c-2.29-1.358-6.046-1.384-8.343-0.059l-5.032,2.823
					C4.78,25.85,4.78,28.06,7.112,29.415L7.112,29.415z"/>
				<path fill="#4E4A41" d="M25.041,18.84l6.012,3.354l13.015-7.782l-5.653-3.246c-2.292-1.357-6.046-1.383-8.342-0.057
					l-5.035,2.822C22.71,15.275,22.71,17.485,25.041,18.84L25.041,18.84z"/>
				<path fill="#4E4A41" d="M42.972,8.266l6.01,3.354L62,3.837l-5.653-3.246c-2.293-1.357-6.049-1.383-8.345-0.058l-5.034,2.823
					C40.639,4.699,40.639,6.909,42.972,8.266L42.972,8.266z"/>
			</g>
			<g transform="translate(61.000000, 199.000000)">
				<path fill="#4E4A41" d="M-136.246,114.124l6.012,3.354l13.016-7.783l-5.655-3.246c-2.291-1.357-6.046-1.383-8.343-0.056
					l-5.033,2.821C-138.578,110.557-138.577,112.767-136.246,114.124L-136.246,114.124z"/>
				<path fill="#4E4A41" d="M-118.316,103.55l6.01,3.352l13.016-7.785l-5.654-3.242c-2.291-1.359-6.046-1.386-8.343-0.059
					l-5.032,2.824C-120.647,99.982-120.647,102.194-118.316,103.55L-118.316,103.55z"/>
				<path fill="#4E4A41" d="M-100.385,92.975l6.01,3.352l13.015-7.783l-5.653-3.245c-2.291-1.359-6.046-1.384-8.343-0.058
					l-5.033,2.822C-102.717,89.406-102.717,91.619-100.385,92.975L-100.385,92.975z"/>
				<path fill="#4E4A41" d="M-82.456,82.399l6.012,3.354l13.015-7.785l-5.654-3.245c-2.29-1.359-6.046-1.383-8.343-0.058
					l-5.033,2.821C-84.788,78.832-84.788,81.042-82.456,82.399L-82.456,82.399z"/>
				<path fill="#4E4A41" d="M-64.526,71.823l6.011,3.354l13.016-7.784l-5.654-3.243c-2.292-1.358-6.046-1.384-8.343-0.059
					l-5.032,2.823C-66.858,68.257-66.858,70.467-64.526,71.823L-64.526,71.823z"/>
				<path fill="#4E4A41" d="M-46.598,61.249l6.015,3.353l13.015-7.783l-5.655-3.245c-2.29-1.357-6.044-1.383-8.343-0.057
					l-5.032,2.821C-48.929,57.682-48.928,59.893-46.598,61.249L-46.598,61.249z"/>
				<path fill="#4E4A41" d="M-28.665,50.673l6.012,3.354l13.013-7.783L-15.293,43c-2.292-1.358-6.047-1.384-8.345-0.059
					l-5.032,2.822C-30.998,47.109-30.998,49.317-28.665,50.673L-28.665,50.673z"/>
				<path fill="#4E4A41" d="M-10.737,40.099l6.012,3.354L8.29,35.671l-5.653-3.246c-2.291-1.357-6.046-1.382-8.343-0.058
					l-5.034,2.824C-13.067,36.533-13.067,38.743-10.737,40.099L-10.737,40.099z"/>
				<path fill="#4E4A41" d="M7.194,29.524l6.012,3.353l13.016-7.782l-5.654-3.246c-2.29-1.357-6.044-1.384-8.343-0.057l-5.033,2.822
					C4.862,25.959,4.862,28.169,7.194,29.524L7.194,29.524z"/>
				<path fill="#4E4A41" d="M25.123,18.949l6.013,3.354l13.013-7.783l-5.653-3.244c-2.29-1.357-6.046-1.384-8.342-0.059
					l-5.034,2.822C22.792,15.384,22.792,17.593,25.123,18.949L25.123,18.949z"/>
				<path fill="#4E4A41" d="M43.054,8.375l6.012,3.354l13.016-7.784L56.428,0.7c-2.289-1.357-6.044-1.383-8.342-0.058l-5.034,2.822
					C40.724,4.81,40.724,7.019,43.054,8.375L43.054,8.375z"/>
			</g>
			<g transform="translate(76.000000, 207.000000)">
				<path fill="#4E4A41" d="M-136.164,114.231l6.012,3.355l13.016-7.783l-5.654-3.248c-2.291-1.356-6.047-1.38-8.344-0.056
					l-5.032,2.825C-138.496,110.665-138.495,112.875-136.164,114.231L-136.164,114.231z"/>
				<path fill="#4E4A41" d="M-118.234,103.658l6.012,3.352l13.016-7.782l-5.654-3.245c-2.292-1.359-6.046-1.386-8.344-0.058
					l-5.032,2.821C-120.565,100.092-120.564,102.302-118.234,103.658L-118.234,103.658z"/>
				<path fill="#4E4A41" d="M-100.303,93.084l6.011,3.354l13.015-7.785l-5.653-3.245c-2.291-1.356-6.046-1.381-8.343-0.058
					l-5.032,2.822C-102.635,89.517-102.634,91.727-100.303,93.084L-100.303,93.084z"/>
				<path fill="#4E4A41" d="M-82.373,82.507l6.01,3.355l13.016-7.785L-69,74.831c-2.29-1.354-6.046-1.38-8.345-0.055l-5.032,2.824
					C-84.705,78.941-84.705,81.151-82.373,82.507L-82.373,82.507z"/>
				<path fill="#4E4A41" d="M-64.444,71.934l6.012,3.354l13.016-7.785l-5.654-3.244c-2.292-1.359-6.046-1.384-8.343-0.057
					l-5.033,2.821C-66.775,68.368-66.774,70.578-64.444,71.934L-64.444,71.934z"/>
				<path fill="#4E4A41" d="M-46.513,61.358l6.01,3.352l13.018-7.783l-5.655-3.243c-2.292-1.358-6.046-1.384-8.343-0.059
					l-5.032,2.823C-48.847,57.792-48.846,60.002-46.513,61.358L-46.513,61.358z"/>
				<path fill="#4E4A41" d="M-28.583,50.782l6.01,3.354l13.016-7.783l-5.653-3.243c-2.293-1.358-6.049-1.385-8.343-0.059
					l-5.033,2.822C-30.916,47.217-30.916,49.427-28.583,50.782L-28.583,50.782z"/>
				<path fill="#4E4A41" d="M-10.654,40.209l6.012,3.354l13.016-7.784L2.72,32.533c-2.292-1.357-6.046-1.384-8.343-0.057
					l-5.033,2.822C-12.987,36.643-12.987,38.853-10.654,40.209L-10.654,40.209z"/>
				<path fill="#4E4A41" d="M7.279,29.634l6.009,3.352l13.016-7.783l-5.653-3.243c-2.292-1.358-6.046-1.383-8.343-0.06l-5.032,2.823
					C4.944,26.067,4.944,28.277,7.279,29.634L7.279,29.634z"/>
				<path fill="#4E4A41" d="M25.207,19.058l6.012,3.354l13.016-7.785l-5.653-3.244c-2.292-1.357-6.047-1.384-8.343-0.058
					l-5.035,2.823C22.875,15.493,22.875,17.702,25.207,19.058L25.207,19.058z"/>
				<path fill="#4E4A41" d="M43.139,8.484l6.01,3.354l13.018-7.783L56.511,0.81c-2.292-1.359-6.047-1.384-8.343-0.059l-5.032,2.822
					C40.806,4.918,40.806,7.128,43.139,8.484L43.139,8.484z"/>
			</g>
		</g>
		<polygon fill="#691787" points="73.767,149.448 -121.437,263.733 -121.437,138.861 73.767,24.575 		"/>
	</g>
	<path id="Shape_96_" fill="#3C362F" d="M-19.015,68.4c0,2.679-1.762,5.894-3.938,7.181l-23.149,13.708
		c-2.175,1.289-3.938,0.162-3.938-2.517l0,0c0-2.677,1.763-5.892,3.938-7.181l23.149-13.708
		C-20.777,64.595-19.015,65.722-19.015,68.4L-19.015,68.4L-19.015,68.4z"/>
	<path id="Shape_97_" fill="#595756" d="M-47.377,84.988c0,1.815,1.101,2.788,2.46,2.173c1.357-0.615,2.459-2.584,2.459-4.399
		c0-1.815-1.102-2.788-2.459-2.174C-46.276,81.204-47.377,83.172-47.377,84.988L-47.377,84.988z"/>
	<path id="Shape_98_" fill="#3C362F" d="M-45.973,84.352c0,0.778,0.472,1.196,1.056,0.932c0.583-0.263,1.055-1.108,1.055-1.887
		c0-0.778-0.472-1.195-1.055-0.933C-45.501,82.729-45.973,83.574-45.973,84.352L-45.973,84.352z"/>
	<g>
		<g id="XMLID_3921_" opacity="0.2" enable-background="new    ">
			<path id="XMLID_3922_" fill="#FFFFFF" d="M-26.757,190.479l12.503-7.218c0.192-0.111,0.31-0.316,0.31-0.537V169.89
				c0-0.477-0.516-0.776-0.931-0.537l-12.232,7.062c-0.36,0.208-0.581,0.591-0.581,1.006v12.521
				C-27.687,190.42-27.171,190.718-26.757,190.479z"/>
		</g>
		<g id="XMLID_3915_" opacity="0.2" enable-background="new    ">
			<path id="XMLID_3916_" fill="#FFFFFF" d="M-9.98,180.858l12.502-7.219c0.192-0.111,0.31-0.315,0.31-0.537v-12.834
				c0-0.478-0.517-0.776-0.93-0.537l-12.232,7.062c-0.36,0.207-0.582,0.591-0.582,1.006v12.521
				C-10.912,180.798-10.394,181.096-9.98,180.858z"/>
		</g>
		<path id="XMLID_3904_" opacity="0.2" fill="#FFFFFF" d="M8.648,140.467l12.237-6.795c0.248-0.143,0.402-0.409,0.402-0.696v-29.641
			c0-0.619-0.67-1.006-1.206-0.696l-11.885,6.592c-0.466,0.269-0.753,0.766-0.753,1.304v29.236
			C7.443,140.389,8.113,140.776,8.648,140.467z"/>
		<g id="XMLID_3021_" opacity="0.2" enable-background="new    ">
			<path id="XMLID_3896_" fill="#FFFFFF" d="M-52.004,204.235l16.197-9.352c0.249-0.144,0.401-0.409,0.401-0.696v-11.745
				c0-0.618-0.669-1.005-1.205-0.696l-15.847,9.149c-0.466,0.269-0.752,0.765-0.752,1.303v11.341
				C-53.21,204.158-52.541,204.545-52.004,204.235z"/>
		</g>
		<path id="XMLID_3018_" opacity="0.5" fill="#FFFFFF" d="M-51.243,184.065l52.767-30.465c0.81-0.468,1.308-1.332,1.308-2.268
			V97.172c0-2.016-2.182-3.276-3.927-2.268l-51.624,29.805c-1.518,0.876-2.452,2.494-2.452,4.246v52.842
			C-55.171,183.813-52.988,185.073-51.243,184.065z"/>
		<g>
			<g id="XMLID_3918_">
				<path id="XMLID_3920_" fill="#FFBC00" d="M-22.746,179.491c0,1.231,0.865,1.73,1.93,1.115c1.067-0.616,1.932-2.113,1.932-3.344
					c0-1.231-0.865-1.73-1.932-1.114C-21.882,176.763-22.746,178.26-22.746,179.491z"/>
				<path id="XMLID_3919_" fill="#FFBC00" d="M-20.816,180.606c1.309-0.755,2.37-0.143,2.37,1.368l-4.738,2.736
					C-23.185,183.199-22.124,181.361-20.816,180.606z"/>
			</g>
			<g id="XMLID_3025_">
				<path id="XMLID_3914_" fill="#FFBC00" d="M-5.97,170.128c0,1.231,0.864,1.73,1.93,1.115c1.066-0.616,1.932-2.113,1.932-3.344
					c0-1.231-0.865-1.73-1.932-1.114C-5.106,167.399-5.97,168.896-5.97,170.128z"/>
				<path id="XMLID_3913_" fill="#FFBC00" d="M-4.039,171.242c1.31-0.755,2.369-0.143,2.369,1.368l-4.738,2.736
					C-6.409,173.835-5.348,171.998-4.039,171.242z"/>
			</g>
			<path id="XMLID_3902_" fill="#FFBC00" d="M10.651,118.182c0.056,0,0.111-0.014,0.163-0.043l7.427-4.288
				c0.156-0.09,0.209-0.289,0.119-0.445c-0.09-0.155-0.289-0.209-0.444-0.119l-7.428,4.288c-0.155,0.09-0.209,0.289-0.119,0.444
				C10.429,118.123,10.539,118.182,10.651,118.182z"/>
			<path id="XMLID_3901_" fill="#FFBC00" d="M10.651,121.48c0.056,0,0.111-0.014,0.163-0.043l7.427-4.288
				c0.156-0.09,0.209-0.289,0.119-0.444c-0.09-0.156-0.289-0.21-0.444-0.119l-7.428,4.288c-0.155,0.09-0.209,0.289-0.119,0.445
				C10.429,121.422,10.539,121.48,10.651,121.48z"/>
			<path id="XMLID_3024_" fill="#FFBC00" d="M10.651,124.779c0.056,0,0.111-0.014,0.163-0.044l7.427-4.288
				c0.156-0.09,0.209-0.289,0.119-0.444c-0.09-0.155-0.289-0.209-0.444-0.119l-7.428,4.288c-0.155,0.09-0.209,0.289-0.119,0.444
				C10.429,124.721,10.539,124.779,10.651,124.779z"/>
			<path id="XMLID_3023_" fill="#FFBC00" d="M10.651,128.078c0.056,0,0.111-0.014,0.163-0.044l7.427-4.288
				c0.156-0.09,0.209-0.289,0.119-0.445c-0.09-0.155-0.289-0.209-0.444-0.119l-7.428,4.288c-0.155,0.09-0.209,0.289-0.119,0.445
				C10.429,128.019,10.539,128.078,10.651,128.078z"/>
			<path id="XMLID_3898_" fill="#FFBC00" d="M10.651,131.376c0.056,0,0.111-0.014,0.163-0.043l7.427-4.288
				c0.156-0.09,0.209-0.289,0.119-0.445c-0.09-0.155-0.289-0.209-0.444-0.119l-7.428,4.288c-0.155,0.09-0.209,0.289-0.119,0.444
				C10.429,131.318,10.539,131.376,10.651,131.376z"/>
			<path id="XMLID_3020_" fill="#FFBC00" d="M-44.564,197.357c0.068,0,0.137-0.008,0.204-0.026c0.212-0.055,0.391-0.192,0.501-0.38
				l5.624-9.743c0.225-0.389,0.091-0.886-0.298-1.111c-0.389-0.226-0.887-0.091-1.111,0.297l-5.211,9.026l-2.762-1.654
				c-0.385-0.23-0.885-0.105-1.115,0.281c-0.231,0.385-0.107,0.885,0.28,1.116l3.471,2.078
				C-44.855,197.318-44.71,197.357-44.564,197.357z"/>
			<path id="XMLID_3016_" fill="#FFBC00" d="M-52.378,181.475c-0.383-0.221-0.611-0.617-0.611-1.059V128.79
				c0-0.796,0.427-1.536,1.116-1.934l50.889-29.38c0.341-0.197,0.748-0.197,1.09,0c0.342,0.196,0.545,0.55,0.545,0.944v52.163
				c0,0.605-0.325,1.169-0.85,1.472l-50.955,29.419c-0.192,0.111-0.401,0.166-0.612,0.166
				C-51.977,181.64-52.186,181.585-52.378,181.475z M-0.495,98.321l-50.89,29.38c-0.388,0.224-0.628,0.641-0.628,1.089v51.625
				c0,0.129,0.085,0.193,0.123,0.214c0.037,0.021,0.136,0.064,0.248,0l50.955-29.419c0.224-0.129,0.362-0.369,0.362-0.627V98.42
				c0-0.054-0.031-0.084-0.057-0.099c-0.015-0.008-0.034-0.016-0.057-0.016C-0.456,98.306-0.475,98.31-0.495,98.321z"/>
			<path id="XMLID_2922_" fill="#FFBC00" d="M-42.079,147.687c0.168,0,0.333-0.088,0.423-0.244c0.134-0.233,0.055-0.532-0.179-0.667
				l-2.487-1.435l2.692-4.661c0.135-0.233,0.055-0.532-0.178-0.667c-0.234-0.135-0.532-0.054-0.668,0.179l-2.934,5.083
				c-0.064,0.113-0.082,0.246-0.048,0.371c0.034,0.125,0.115,0.231,0.227,0.296l2.909,1.679
				C-42.246,147.666-42.163,147.687-42.079,147.687z"/>
			<path id="XMLID_2921_" fill="#FFBC00" d="M-10.26,129.261c0.169,0,0.333-0.088,0.423-0.244l2.909-5.039
				c0.064-0.112,0.082-0.245,0.048-0.371c-0.033-0.125-0.115-0.231-0.227-0.296l-2.936-1.694c-0.233-0.135-0.532-0.054-0.667,0.179
				c-0.135,0.234-0.054,0.532,0.179,0.667l2.511,1.45l-2.664,4.616c-0.135,0.234-0.055,0.532,0.178,0.667
				C-10.427,129.24-10.343,129.261-10.26,129.261z"/>
			<path id="XMLID_918_" fill="#FFBC00" d="M-15.135,132.241c0,5.952-4.178,13.189-9.332,16.164
				c-5.153,2.976-9.332,0.564-9.332-5.388c0-5.952,4.179-13.189,9.332-16.165C-19.312,123.877-15.135,126.289-15.135,132.241z"/>
		</g>
	</g>
	<polygon opacity="0.3" fill="#F79FE0" points="-120.808,263.733 -120.808,138.861 74.396,24.575 	"/>
</g>
</svg>
