<?xml version="1.0" encoding="utf-8"?>
<!-- Generator: Adobe Illustrator 17.0.0, SVG Export Plug-In . SVG Version: 6.00 Build 0)  -->
<!DOCTYPE svg PUBLIC "-//W3C//DTD SVG 1.1//EN" "http://www.w3.org/Graphics/SVG/1.1/DTD/svg11.dtd">
<svg version="1.1" id="Layer_1" xmlns="http://www.w3.org/2000/svg" xmlns:xlink="http://www.w3.org/1999/xlink" x="0px" y="0px"
	 width="240px" height="130.549px" viewBox="-141.094 0 240 130.549" enable-background="new -141.094 0 240 130.549"
	 xml:space="preserve">
<path id="Shape_99_" fill="#2E2C2C" d="M84.017,109.428c-1.001,0-1.975-0.52-2.51-1.449c-0.8-1.387-0.325-3.159,1.063-3.957
	l6.651-3.829c1.386-0.799,3.156-0.324,3.956,1.062c0.797,1.387,0.321,3.156-1.063,3.955l-6.654,3.832
	C85.005,109.303,84.509,109.428,84.017,109.428L84.017,109.428z"/>
<path id="Shape_100_" fill="#4F4A48" d="M51.366,125.748c-0.967,0-2.013-0.188-3.091-0.694L-138.621,14.003
	c-0.045-0.027-0.089-0.058-0.131-0.09c-0.245-0.195-2.387-1.981-2.341-4.462c0.028-1.492,0.827-2.829,2.377-3.972
	c0.515-0.385,1.239-0.271,1.62,0.242c0.38,0.515,0.271,1.24-0.244,1.622c-0.94,0.693-1.423,1.418-1.437,2.153
	c-0.021,1.101,0.989,2.197,1.417,2.561L49.36,123.012c2.845,1.332,5.61-0.751,5.729-0.841c0.033-0.027,0.074-0.054,0.113-0.079
	l27.557-16.552c0.549-0.329,1.26-0.15,1.589,0.397c0.329,0.549,0.151,1.261-0.397,1.589l-27.504,16.521
	C56.047,124.34,54.003,125.748,51.366,125.748L51.366,125.748z"/>
<path id="Shape_101_" fill="#2E2C2C" d="M-137.868,8.891c-0.947,0-1.875-0.464-2.43-1.315c-0.872-1.343-0.493-3.136,0.848-4.007
	l4.761-3.101c1.341-0.871,3.134-0.492,4.006,0.848c0.872,1.342,0.493,3.135-0.847,4.008l-4.76,3.096
	C-136.779,8.739-137.326,8.891-137.868,8.891L-137.868,8.891z"/>
</svg>
