<?xml version="1.0" encoding="utf-8"?>
<!-- Generator: Adobe Illustrator 17.0.0, SVG Export Plug-In . SVG Version: 6.00 Build 0)  -->
<!DOCTYPE svg PUBLIC "-//W3C//DTD SVG 1.1//EN" "http://www.w3.org/Graphics/SVG/1.1/DTD/svg11.dtd">
<svg version="1.1" id="Layer_1" xmlns="http://www.w3.org/2000/svg" xmlns:xlink="http://www.w3.org/1999/xlink" x="0px" y="0px"
	 width="111px" height="245.048px" viewBox="0 0 111 245.048" enable-background="new 0 0 111 245.048" xml:space="preserve">
<g>
	<path fill="#D0D0C7" d="M67.581,210.733c-0.44,0.049-0.881,0.297-1.334,0.322c-0.489,0.037-0.979,0.261-1.48,0.261h-0.073
		c-0.979,0-1.958,0.021-2.937,0.082c-0.489,0.024-0.991-0.057-1.493-0.033c-1.505,0.073-3.022,0.07-4.552,0.07
		c-2.031,0-4.05-0.051-6.02-0.149c-1.982-0.11-3.94-0.258-5.849-0.454c3.817-1.089,7.794-1.744,11.868-1.744
		S63.763,209.644,67.581,210.733z"/>
	<path fill="#C7C3B7" d="M111,185.785v33.672c0,14.108-24.862,25.591-55.353,25.591C25.083,245.048,0,232.954,0,219.495v-33.527
		c0,12.187,18.912,22.367,43.689,24.863c1.946,0.195,3.95,0.355,5.993,0.452c1.97,0.098,3.994,0.147,6.025,0.147
		c1.529,0,3.049-0.085,4.554-0.171c0.502-0.024,1.005,0.163,1.494,0.139c0.979-0.062,1.959-0.082,2.938-0.082h0.073
		c0.502,0,0.991-0.224,1.48-0.261c0.477-0.025,0.775-0.167,1.252-0.216C92.374,208.33,111,198.057,111,185.785z"/>
	<path fill="#D0D0C7" d="M111.091,185.785c0,12.272-18.635,22.44-43.51,24.949c-0.44,0.049-0.881,0.297-1.334,0.322
		c-0.489,0.037-0.979,0.261-1.48,0.261h-0.073c-0.979,0-1.958,0.021-2.937,0.082c-0.489,0.024-0.991-0.057-1.493-0.033
		c-1.505,0.073-3.022,0.07-4.552,0.07c-2.031,0-4.05-0.051-6.02-0.149c-1.982-0.11-3.94-0.258-5.849-0.454
		c-2.337-0.232-4.613-0.545-6.828-0.912c-1.321-0.22-2.618-0.469-3.891-0.726c-2.264-0.465-4.454-1.005-6.546-1.592
		c-8.381-2.362-15.27-5.727-19.883-9.765c-0.379-0.33-0.758-0.673-1.113-1.016c-0.6-0.587-1.15-1.175-1.652-1.775
		c-2.239-2.691-3.499-5.616-3.597-8.687c0-0.135-0.012-0.375-0.012-0.51l21.535-4.535h21.975l24.239,1.268L111.091,185.785z"/>
	<path fill="#EDEDE5" d="M111.091,185.785c0,12.272-18.635,22.44-43.51,24.949c-0.44,0.049-0.881,0.297-1.334,0.322
		c-0.489,0.037-0.979,0.261-1.48,0.261h-0.073c-0.979,0-1.958,0.021-2.937,0.082c-0.489,0.024-0.991-0.057-1.493-0.033
		c-1.505,0.073-3.022,0.07-4.552,0.07c-2.031,0-4.05-0.051-6.02-0.149c-1.982-0.11-3.94-0.258-5.849-0.454
		c-2.337-0.232-4.613-0.545-6.828-0.912c-1.321-0.22-2.618-0.469-3.891-0.726c-2.264-0.465-4.454-1.005-6.546-1.592
		c-8.333-2.386-15.233-5.764-19.883-9.765c-0.379-0.33-0.758-0.673-1.113-1.016c-0.6-0.587-1.15-1.175-1.652-1.775
		c-2.288-2.691-3.617-5.628-3.764-8.687c0-0.135-0.167-0.257-0.167-0.392v-0.183c0-14.156,24.969-25.646,55.558-25.646
		C86.134,160.139,111.091,171.628,111.091,185.785z"/>
	<path id="Shape_8_" fill="#D0D0C7" d="M55.706,164.896c-24.915,0-45.114,9.353-45.114,20.891c0,11.53,20.198,20.886,45.114,20.886
		c24.914,0,45.113-9.358,45.113-20.886C100.819,174.249,80.621,164.896,55.706,164.896L55.706,164.896z"/>
	<g id="Clipped_4_" transform="translate(24.000000, 91.000000)">
		<g id="SVGID_4_">
		</g>
		<defs>
			<filter id="Adobe_OpacityMaskFilter" filterUnits="userSpaceOnUse" x="-13.407" y="90.112" width="90.226" height="41.776">
				<feColorMatrix  type="matrix" values="1 0 0 0 0  0 1 0 0 0  0 0 1 0 0  0 0 0 1 0"/>
			</filter>
		</defs>
		<mask maskUnits="userSpaceOnUse" x="-13.407" y="90.112" width="90.226" height="41.776" id="mask-2_2_">
			<g filter="url(#Adobe_OpacityMaskFilter)">
				<path id="path-1_2_" fill="#FFFFFF" d="M31.706,73.896c-24.915,0-45.114,9.353-45.114,20.891
					c0,11.53,20.198,20.886,45.114,20.886c24.914,0,45.113-9.358,45.113-20.886C76.819,83.249,56.621,73.896,31.706,73.896
					L31.706,73.896z"/>
			</g>
		</mask>
		<g id="Group_2_" mask="url(#mask-2_2_)">
			<g transform="translate(0.000000, 13.000000)">
				<path id="Shape_7_" fill="#FFBC00" d="M-13.407,98.003c0,11.531,20.198,20.885,45.114,20.885
					c24.914,0,45.113-9.355,45.113-20.885c0-11.538-20.198-20.891-45.113-20.891C6.791,77.112-13.407,86.465-13.407,98.003
					L-13.407,98.003z"/>
				<ellipse id="Oval_19_" fill="#FF7E00" cx="31.705" cy="98.003" rx="17.038" ry="7.887"/>
			</g>
		</g>
	</g>
	<g>
		<g>
			<rect x="65.422" y="38.948" fill="#00A99D" width="2.64" height="166.846"/>
		</g>
		<g>
			<path fill="#00A99D" d="M75.587,15.72c0,12.214-8.845,28.51-8.845,28.51s-8.845-16.296-8.845-28.51S61.856,0,66.742,0
				C71.627,0,75.587,3.506,75.587,15.72z"/>
		</g>
		<g>
			<path fill="#00A99D" d="M52.249,34.967c8.828,8.441,14.493,26.096,14.493,26.096s-17.891-4.869-26.718-13.31
				s-8.625-13.726-5.249-17.257C38.151,26.965,43.421,26.526,52.249,34.967z"/>
		</g>
		<g>
			<path fill="#00A99D" d="M81.234,34.967c-8.828,8.441-14.493,26.096-14.493,26.096s17.891-4.869,26.719-13.31
				s8.625-13.726,5.249-17.257C95.333,26.965,90.062,26.526,81.234,34.967z"/>
		</g>
		<g>
			<path fill="#00A99D" d="M52.249,64.767c8.828,8.441,14.493,26.096,14.493,26.096s-17.891-4.869-26.718-13.31
				c-8.828-8.441-8.625-13.726-5.249-17.257C38.151,56.765,43.421,56.325,52.249,64.767z"/>
		</g>
		<g>
			<path fill="#00A99D" d="M81.234,64.767c-8.828,8.441-14.493,26.096-14.493,26.096s17.891-4.869,26.719-13.31
				c8.828-8.441,8.625-13.726,5.249-17.257C95.333,56.765,90.062,56.325,81.234,64.767z"/>
		</g>
		<g>
			<path fill="#00A99D" d="M52.249,97.718c8.828,8.441,14.493,26.096,14.493,26.096s-17.891-4.869-26.718-13.31
				c-8.828-8.441-8.625-13.726-5.249-17.257C38.151,89.717,43.421,89.278,52.249,97.718z"/>
		</g>
		<g>
			<path fill="#00A99D" d="M81.234,97.718c-8.828,8.441-14.493,26.096-14.493,26.096s17.891-4.869,26.719-13.31
				c8.828-8.441,8.625-13.726,5.249-17.257C95.333,89.717,90.062,89.278,81.234,97.718z"/>
		</g>
		<g>
			<path fill="#00A99D" d="M52.249,130.67c8.828,8.441,14.493,26.096,14.493,26.096s-17.891-4.869-26.718-13.31
				c-8.828-8.441-8.625-13.726-5.249-17.257C38.151,122.669,43.421,122.229,52.249,130.67z"/>
		</g>
		<g>
			<path fill="#00A99D" d="M81.234,130.67c-8.828,8.441-14.493,26.096-14.493,26.096s17.891-4.869,26.719-13.31
				c8.828-8.441,8.625-13.726,5.249-17.257C95.333,122.669,90.062,122.229,81.234,130.67z"/>
		</g>
		<g>
			<path fill="#00A99D" d="M52.249,163.622c8.828,8.441,14.493,26.096,14.493,26.096s-17.891-4.869-26.718-13.31
				c-8.828-8.441-8.625-13.726-5.249-17.257C38.151,155.62,43.421,155.181,52.249,163.622z"/>
		</g>
		<g>
			<path fill="#00A99D" d="M81.234,163.622c-8.828,8.441-14.493,26.096-14.493,26.096s17.891-4.869,26.719-13.31
				c8.828-8.441,8.625-13.726,5.249-17.257C95.333,155.62,90.062,155.181,81.234,163.622z"/>
		</g>
	</g>
	<g>
		<g>
			<rect x="43.352" y="53.048" fill="#4BDBCA" width="2.641" height="152.746"/>
		</g>
		<g>
			<path fill="#4BDBCA" d="M53.518,29.819c0,12.214-8.845,28.509-8.845,28.509s-8.845-16.296-8.845-28.509s3.96-15.72,8.845-15.72
				C49.557,14.1,53.518,17.606,53.518,29.819z"/>
		</g>
		<g>
			<path fill="#4BDBCA" d="M30.179,49.067c8.828,8.441,14.493,26.096,14.493,26.096s-17.891-4.869-26.719-13.31
				c-8.828-8.441-8.625-13.726-5.249-17.257C16.081,41.065,21.352,40.626,30.179,49.067z"/>
		</g>
		<g>
			<path fill="#4BDBCA" d="M59.165,49.067c-8.828,8.441-14.493,26.096-14.493,26.096s17.891-4.869,26.719-13.31
				c8.828-8.441,8.625-13.726,5.249-17.257C73.264,41.065,67.992,40.626,59.165,49.067z"/>
		</g>
		<g>
			<path fill="#4BDBCA" d="M30.179,78.866c8.828,8.441,14.493,26.096,14.493,26.096s-17.891-4.869-26.719-13.31
				c-8.828-8.441-8.625-13.726-5.249-17.257C16.081,70.865,21.352,70.425,30.179,78.866z"/>
		</g>
		<g>
			<path fill="#4BDBCA" d="M59.165,78.866c-8.828,8.441-14.493,26.096-14.493,26.096s17.891-4.869,26.719-13.31
				c8.828-8.441,8.625-13.726,5.249-17.257C73.264,70.865,67.992,70.425,59.165,78.866z"/>
		</g>
		<g>
			<path fill="#4BDBCA" d="M30.179,111.818c8.828,8.441,14.493,26.096,14.493,26.096s-17.891-4.869-26.719-13.31
				s-8.625-13.726-5.249-17.257C16.081,103.816,21.352,103.377,30.179,111.818z"/>
		</g>
		<g>
			<path fill="#4BDBCA" d="M59.165,111.818c-8.828,8.441-14.493,26.096-14.493,26.096s17.891-4.869,26.719-13.31
				c8.828-8.441,8.625-13.726,5.249-17.257C73.264,103.816,67.992,103.377,59.165,111.818z"/>
		</g>
		<g>
			<path fill="#4BDBCA" d="M30.179,144.77c8.828,8.441,14.493,26.096,14.493,26.096s-17.891-4.869-26.719-13.31
				s-8.625-13.726-5.249-17.257C16.081,136.768,21.352,136.329,30.179,144.77z"/>
		</g>
		<g>
			<path fill="#4BDBCA" d="M59.165,144.77c-8.828,8.441-14.493,26.096-14.493,26.096s17.891-4.869,26.719-13.31
				c8.828-8.441,8.625-13.726,5.249-17.257C73.264,136.768,67.992,136.329,59.165,144.77z"/>
		</g>
		<g>
			<path fill="#4BDBCA" d="M30.179,177.721c8.828,8.441,14.493,26.096,14.493,26.096s-17.891-4.869-26.719-13.31
				c-8.828-8.441-8.625-13.726-5.249-17.257C16.081,169.72,21.352,169.281,30.179,177.721z"/>
		</g>
		<g>
			<path fill="#4BDBCA" d="M59.165,177.721c-8.828,8.441-14.493,26.096-14.493,26.096s17.891-4.869,26.719-13.31
				c8.828-8.441,8.625-13.726,5.249-17.257C73.264,169.72,67.992,169.281,59.165,177.721z"/>
		</g>
	</g>
</g>
</svg>
