<?xml version="1.0" encoding="utf-8"?>
<!-- Generator: Adobe Illustrator 17.0.0, SVG Export Plug-In . SVG Version: 6.00 Build 0)  -->
<!DOCTYPE svg PUBLIC "-//W3C//DTD SVG 1.1//EN" "http://www.w3.org/Graphics/SVG/1.1/DTD/svg11.dtd">
<svg version="1.1" id="Layer_1" xmlns="http://www.w3.org/2000/svg" xmlns:xlink="http://www.w3.org/1999/xlink" x="0px" y="0px"
	 width="259.021px" height="154.862px" viewBox="0 0 259.021 154.862" enable-background="new 0 0 259.021 154.862"
	 xml:space="preserve">
<g>
	<g>
		<polygon fill="#189E98" points="0,19.365 0,14.986 259.021,135.568 259.021,140.37 233.924,154.861 		"/>
	</g>
	<g>
		<polygon fill="#45B6BB" points="25.05,0.484 0.04,14.986 233.918,150.04 259.021,135.568 		"/>
	</g>
	<g>
		<polygon fill="#2A2F3F" points="11.548,14.042 14.17,15.297 7.337,19.217 4.974,17.853 		"/>
		<polygon fill="#2A2F3F" points="20.431,19.17 23.053,20.426 16.22,24.346 13.857,22.982 		"/>
		<polygon fill="#2A2F3F" points="29.314,24.299 31.936,25.554 25.103,29.475 22.74,28.111 		"/>
		<polygon fill="#2A2F3F" points="38.196,29.428 40.819,30.683 33.986,34.603 31.623,33.239 		"/>
		<polygon fill="#2A2F3F" points="47.079,34.557 49.702,35.812 42.869,39.732 40.506,38.368 		"/>
		<polygon fill="#2A2F3F" points="55.962,39.685 58.585,40.941 51.752,44.861 49.389,43.497 		"/>
		<polygon fill="#2A2F3F" points="64.845,44.814 67.468,46.069 60.635,49.99 58.272,48.625 		"/>
		<polygon fill="#2A2F3F" points="73.728,49.943 76.351,51.198 69.518,55.118 67.155,53.754 		"/>
		<polygon fill="#2A2F3F" points="82.611,55.071 85.233,56.327 78.401,60.247 76.038,58.883 		"/>
		<polygon fill="#2A2F3F" points="91.494,60.2 94.116,61.455 87.283,65.376 84.921,64.012 		"/>
		<polygon fill="#2A2F3F" points="100.377,65.329 102.999,66.584 96.166,70.504 93.804,69.14 		"/>
		<polygon fill="#2A2F3F" points="109.26,70.458 111.882,71.713 105.049,75.633 102.687,74.269 		"/>
		<polygon fill="#2A2F3F" points="118.143,75.586 120.765,76.841 113.932,80.762 111.57,79.398 		"/>
		<polygon fill="#2A2F3F" points="127.026,80.715 129.648,81.97 122.815,85.891 120.453,84.526 		"/>
		<polygon fill="#2A2F3F" points="135.909,85.844 138.531,87.099 131.698,91.019 129.336,89.655 		"/>
		<polygon fill="#2A2F3F" points="144.792,90.972 147.414,92.228 140.581,96.148 138.219,94.784 		"/>
		<polygon fill="#2A2F3F" points="153.675,96.101 156.297,97.356 149.464,101.277 147.102,99.912 		"/>
		<polygon fill="#2A2F3F" points="162.558,101.23 165.18,102.485 158.347,106.405 155.985,105.041 		"/>
		<polygon fill="#2A2F3F" points="171.441,106.359 174.063,107.614 167.23,111.534 164.868,110.17 		"/>
		<polygon fill="#2A2F3F" points="180.324,111.487 182.946,112.743 176.113,116.663 173.751,115.299 		"/>
		<polygon fill="#2A2F3F" points="189.207,116.616 191.829,117.871 184.996,121.791 182.634,120.427 		"/>
		<polygon fill="#2A2F3F" points="198.09,121.745 200.712,123 193.879,126.92 191.517,125.556 		"/>
		<polygon fill="#2A2F3F" points="206.973,126.873 209.595,128.129 202.762,132.049 200.4,130.685 		"/>
		<polygon fill="#2A2F3F" points="215.856,132.002 218.478,133.257 211.645,137.178 209.282,135.814 		"/>
		<polygon fill="#2A2F3F" points="224.739,137.131 227.361,138.386 220.528,142.306 218.165,140.942 		"/>
		<polygon fill="#2A2F3F" points="233.622,142.259 236.244,143.515 229.411,147.435 227.048,146.071 		"/>
	</g>
</g>
</svg>
