<?xml version="1.0" encoding="utf-8"?>
<!-- Generator: Adobe Illustrator 17.0.0, SVG Export Plug-In . SVG Version: 6.00 Build 0)  -->
<!DOCTYPE svg PUBLIC "-//W3C//DTD SVG 1.1//EN" "http://www.w3.org/Graphics/SVG/1.1/DTD/svg11.dtd">
<svg version="1.1" id="Layer_1" xmlns="http://www.w3.org/2000/svg" xmlns:xlink="http://www.w3.org/1999/xlink" x="0px" y="0px"
	 width="261.906px" height="212.549px" viewBox="-141.094 0 261.906 212.549" enable-background="new -141.094 0 261.906 212.549"
	 xml:space="preserve">
<g>
	<g>
		<g id="Group" transform="translate(0.000000, 25.000000)">
			<polyline id="Shape_1_" fill="#FFA700" points="-131.192,87.158 -131.192,121.693 -117.22,116.35 -114.949,105.79 
				-115.75,97.769 -118.957,92.956 			"/>
			<polyline id="Shape_2_" fill="#FF7E00" points="-127.716,89.17 -127.716,123.704 -113.745,118.362 -111.472,107.801 
				-112.274,99.779 -115.482,94.967 			"/>
			<g id="Shape_3_">
				<path fill="#FFA700" d="M16.882,37.978l90.848,53.886c11.739,6.942,11.706,18.325-0.076,25.299L3.795,176.784
					c-11.877,7.036-31.334,7.176-43.232,0.309l-91.756-54.084v-2.31L16.882,37.978L16.882,37.978z"/>
				<path fill="#FF7E00" d="M16.882,34.351l90.848,53.887c11.739,6.942,11.706,18.324-0.076,25.297L3.795,173.157
					c-11.877,7.034-31.334,7.176-43.232,0.311l-91.756-54.084L16.882,34.351L16.882,34.351z"/>
				<path fill="#FFFFFF" d="M92.132,89.794l2.921-2.635l12.359-8.038v21.891l-0.01-0.001c0.106,4.339-2.624,8.705-8.199,12.005
					L2.98,168.254c-11.007,6.515-29.031,6.646-40.059,0.29l-85.013-50.11V96.374L92.132,89.794L92.132,89.794z"/>
				<polygon fill="#6A1B9A" points="-124.565,140.649 -101.272,126.655 -115.799,118.128 -139.094,132.122 -129.915,135.235 				"/>
				<polygon fill="#E45DBF" points="-114.95,118.626 -101.332,126.621 -101.295,126.668 -103.152,127.786 -118.028,119.467 
					-116.071,118.292 				"/>
				<path fill="#FFA700" d="M16.882,5.976l90.848,53.886c11.739,6.944,11.706,18.325-0.076,25.3L3.795,144.783
					c-11.877,7.034-31.334,7.174-43.232,0.312l-91.756-54.085V87.16L16.882,5.976L16.882,5.976z"/>
				<path fill="#FFBC00" d="M16.882,2.125l90.848,53.886c11.739,6.942,11.706,18.325-0.076,25.3L3.795,140.933
					c-11.877,7.033-31.334,7.171-43.232,0.311l-91.756-54.085L16.882,2.125L16.882,2.125z"/>
				<g transform="translate(24.000000, 114.000000)">
					<path fill="#D0CCCA" d="M-81.312,25.883c0.268,0,0.526-0.14,0.669-0.388c0.211-0.37,0.084-0.839-0.285-1.051l-59.186-33.926
						c-0.368-0.211-0.839-0.085-1.051,0.285c-0.213,0.368-0.084,0.839,0.284,1.05l59.187,33.928
						C-81.574,25.852-81.442,25.883-81.312,25.883L-81.312,25.883z"/>
					<path fill="#D0CCCA" d="M-73.283,34.67c0.268,0,0.526-0.141,0.669-0.388c0.211-0.368,0.083-0.838-0.285-1.05l-67.214-38.527
						c-0.368-0.211-0.839-0.084-1.051,0.284c-0.213,0.37-0.084,0.84,0.284,1.052l67.215,38.524
						C-73.545,34.636-73.414,34.67-73.283,34.67L-73.283,34.67z"/>
					<path fill="#D0CCCA" d="M-60.582,46.134c0.268,0,0.526-0.137,0.669-0.386c0.211-0.37,0.085-0.839-0.285-1.052L-140.114-1.11
						c-0.368-0.211-0.839-0.084-1.051,0.285c-0.213,0.368-0.084,0.839,0.284,1.051l79.918,45.809
						C-60.844,46.105-60.713,46.134-60.582,46.134L-60.582,46.134z"/>
					<path fill="#D0CCCA" d="M-60.582,50.321c0.268,0,0.526-0.139,0.669-0.386c0.211-0.369,0.085-0.84-0.285-1.052l-79.916-45.806
						c-0.368-0.21-0.839-0.083-1.051,0.286c-0.213,0.369-0.084,0.839,0.284,1.051l79.918,45.805
						C-60.844,50.288-60.713,50.321-60.582,50.321L-60.582,50.321z"/>
				</g>
				<g transform="translate(156.000000, 102.000000)">
					<path fill="#D0CCCA" d="M-121.314,31.049c0.127,0,0.258-0.033,0.378-0.1l66.765-37.756c0.37-0.209,0.499-0.679,0.291-1.05
						c-0.209-0.37-0.68-0.5-1.05-0.29l-66.763,37.755c-0.37,0.209-0.501,0.679-0.292,1.052
						C-121.845,30.909-121.583,31.049-121.314,31.049L-121.314,31.049z"/>
					<path fill="#D0CCCA" d="M-134.467,42.671c0.129,0,0.258-0.032,0.378-0.098l79.918-45.19c0.37-0.209,0.499-0.679,0.291-1.05
						c-0.209-0.37-0.68-0.5-1.05-0.291l-79.916,45.191c-0.369,0.209-0.501,0.68-0.29,1.051
						C-134.997,42.532-134.734,42.671-134.467,42.671L-134.467,42.671z"/>
					<path fill="#D0CCCA" d="M-146.11,53.95c0.128,0,0.259-0.033,0.38-0.103l91.56-52.282c0.37-0.211,0.498-0.683,0.287-1.052
						c-0.211-0.369-0.681-0.498-1.052-0.286l-91.56,52.284c-0.37,0.209-0.498,0.681-0.287,1.051
						C-146.64,53.812-146.379,53.95-146.11,53.95L-146.11,53.95z"/>
					<path fill="#D0CCCA" d="M-154.411,62.321c0.129,0,0.26-0.031,0.38-0.099l99.859-56.468c0.37-0.208,0.499-0.679,0.291-1.049
						c-0.209-0.37-0.68-0.5-1.05-0.291l-99.859,56.471c-0.37,0.208-0.501,0.678-0.291,1.047
						C-154.939,62.179-154.678,62.321-154.411,62.321L-154.411,62.321z"/>
				</g>
			</g>
		</g>
		<g id="Group_1_" transform="translate(41.000000, 2.000000)">
			<g id="Shape_5_">
				<polyline fill="#D81245" points="-143.015,76.955 -143.015,106.448 -131.082,101.884 -129.141,92.865 -129.826,86.016 
					-132.566,81.906 				"/>
				<polyline fill="#A3002F" points="-140.046,78.672 -140.046,108.166 -128.114,103.602 -126.172,94.584 -126.858,87.733 
					-129.599,83.624 				"/>
				<g>
					<path fill="#D81245" d="M-16.556,34.954l77.583,46.02c10.025,5.929,9.996,15.649-0.064,21.604l-88.698,50.918
						c-10.141,6.007-26.756,6.125-36.918,0.263l-78.362-46.189v-1.972L-16.556,34.954L-16.556,34.954z"/>
					<path fill="#A3002F" d="M-16.556,31.857l77.583,46.02c10.025,5.929,9.996,15.648-0.064,21.605l-88.698,50.917
						c-10.141,6.008-26.756,6.126-36.918,0.263l-78.362-46.187L-16.556,31.857L-16.556,31.857z"/>
					<path fill="#FFFFFF" d="M47.706,79.205l2.494-2.251l10.555-6.865v18.697l-0.009-0.001c0.09,3.705-2.24,7.431-7.002,10.251
						l-82.177,47.173c-9.399,5.566-24.791,5.674-34.209,0.248l-72.603-42.795V84.825L47.706,79.205L47.706,79.205z"/>
					<path fill="#D81245" d="M-16.556,7.625l77.583,46.019c10.025,5.929,9.996,15.649-0.064,21.605l-88.698,50.917
						c-10.141,6.005-26.756,6.125-36.918,0.266l-78.362-46.187v-3.289L-16.556,7.625L-16.556,7.625z"/>
					<path fill="#FF557B" d="M-16.556,4.336l77.583,46.018c10.025,5.93,9.996,15.65-0.064,21.608l-88.698,50.915
						c-10.141,6.007-26.756,6.126-36.918,0.266l-78.362-46.188L-16.556,4.336L-16.556,4.336z"/>
					<g transform="translate(13.000000, 97.000000)">
						<path fill="#D0CCCA" d="M-92.919,25.094c0.267,0,0.526-0.139,0.669-0.388c0.211-0.37,0.083-0.84-0.286-1.051l-50.545-28.973
							c-0.367-0.212-0.839-0.086-1.052,0.285c-0.211,0.369-0.083,0.839,0.285,1.05l50.545,28.973
							C-93.181,25.061-93.05,25.094-92.919,25.094L-92.919,25.094z"/>
						<path fill="#D0CCCA" d="M-86.064,32.599c0.268,0,0.527-0.14,0.669-0.388c0.211-0.37,0.086-0.84-0.285-1.052l-57.401-32.9
							c-0.367-0.211-0.839-0.085-1.052,0.285c-0.211,0.369-0.083,0.84,0.285,1.051l57.401,32.901
							C-86.325,32.565-86.194,32.599-86.064,32.599L-86.064,32.599z"/>
						<path fill="#D0CCCA" d="M-75.217,42.39c0.268,0,0.526-0.139,0.669-0.388c0.211-0.369,0.083-0.839-0.284-1.051l-68.25-39.119
							c-0.367-0.211-0.839-0.083-1.052,0.285c-0.211,0.369-0.083,0.84,0.285,1.052L-75.6,42.287
							C-75.479,42.357-75.346,42.39-75.217,42.39L-75.217,42.39z"/>
						<path fill="#D0CCCA" d="M-75.217,45.964c0.268,0,0.526-0.138,0.669-0.388c0.211-0.368,0.083-0.839-0.284-1.051l-68.25-39.117
							c-0.367-0.211-0.839-0.082-1.052,0.286c-0.211,0.368-0.083,0.839,0.285,1.051L-75.6,45.862
							C-75.479,45.93-75.346,45.964-75.217,45.964L-75.217,45.964z"/>
					</g>
					<g transform="translate(126.000000, 87.000000)">
						<path fill="#D0CCCA" d="M-127.354,29.258c0.129,0,0.259-0.032,0.379-0.1l57.016-32.243c0.37-0.209,0.501-0.679,0.292-1.05
							c-0.21-0.37-0.68-0.5-1.05-0.291l-57.017,32.244c-0.37,0.209-0.5,0.679-0.291,1.048
							C-127.883,29.118-127.622,29.258-127.354,29.258L-127.354,29.258z"/>
						<path fill="#D0CCCA" d="M-138.586,39.184c0.129,0,0.26-0.032,0.379-0.099l68.247-38.593c0.37-0.209,0.501-0.678,0.292-1.05
							c-0.21-0.37-0.68-0.5-1.05-0.291l-68.248,38.593c-0.37,0.209-0.5,0.68-0.291,1.05
							C-139.115,39.043-138.853,39.184-138.586,39.184L-138.586,39.184z"/>
						<path fill="#D0CCCA" d="M-148.529,48.816c0.129,0,0.26-0.033,0.381-0.103l78.192-44.651c0.37-0.211,0.498-0.682,0.286-1.052
							c-0.21-0.369-0.681-0.498-1.051-0.286l-78.192,44.651c-0.368,0.211-0.498,0.681-0.285,1.051
							C-149.057,48.676-148.798,48.816-148.529,48.816L-148.529,48.816z"/>
						<path fill="#D0CCCA" d="M-155.617,55.964c0.128,0,0.258-0.032,0.378-0.098l85.28-48.225c0.37-0.209,0.501-0.68,0.292-1.049
							c-0.21-0.37-0.68-0.501-1.05-0.292l-85.28,48.224c-0.37,0.209-0.5,0.679-0.292,1.05
							C-156.148,55.825-155.886,55.964-155.617,55.964L-155.617,55.964z"/>
					</g>
				</g>
			</g>
			<polygon id="Shape_6_" fill="#D81245" points="-143.015,105.444 -140.046,107.024 -140.046,97.999 -143.015,97.999 			"/>
		</g>
		<g>
			<g id="Group_6_" transform="translate(41.000000, 2.000000)">
				<g id="Shape_102_">
					<polyline fill="#00A99D" points="-81.993,48.582 -81.993,68.387 -73.98,65.323 -72.677,59.266 -73.137,54.667 -74.977,51.907 
											"/>
					<polyline fill="#007267" points="-79.999,49.736 -79.999,69.541 -71.988,66.476 -70.683,60.421 -71.144,55.82 -72.984,53.061 
											"/>
					<g>
						<path fill="#00A99D" d="M2.926,20.378l52.098,30.903c6.732,3.981,6.713,10.508-0.043,14.508L-4.582,99.981
							c-6.81,4.034-17.967,4.113-24.791,0.177l-52.621-31.016v-1.325L2.926,20.378L2.926,20.378z"/>
						<path fill="#007267" d="M2.926,18.299l52.098,30.903c6.732,3.981,6.713,10.508-0.043,14.508L-4.582,97.901
							c-6.81,4.034-17.967,4.114-24.791,0.177l-52.621-31.015L2.926,18.299L2.926,18.299z"/>
						<path fill="#FFFFFF" d="M46.078,50.094l1.675-1.511l7.088-4.61v12.555l-0.006-0.001c0.061,2.488-1.504,4.99-4.702,6.884
							L-5.05,95.088c-6.311,3.737-16.648,3.81-22.971,0.166l-48.754-28.738v-12.65L46.078,50.094L46.078,50.094z"/>
						<path fill="#00A99D" d="M2.926,2.027l52.098,30.902c6.732,3.981,6.713,10.508-0.043,14.508L-4.582,81.628
							c-6.81,4.032-17.967,4.113-24.791,0.178l-52.621-31.015v-2.209L2.926,2.027L2.926,2.027z"/>
						<path fill="#4BDBCA" d="M2.926-0.182L55.023,30.72c6.732,3.982,6.713,10.509-0.043,14.51L-4.582,79.42
							c-6.81,4.034-17.967,4.114-24.791,0.178l-52.621-31.016L2.926-0.182L2.926-0.182z"/>
						<g transform="translate(13.000000, 97.000000)">
							<path fill="#D0CCCA" d="M-52.624-18.106c0.179,0,0.353-0.093,0.449-0.26c0.142-0.248,0.056-0.564-0.192-0.706l-33.941-19.456
								c-0.246-0.142-0.564-0.058-0.706,0.191c-0.142,0.248-0.056,0.564,0.192,0.705l33.941,19.456
								C-52.8-18.128-52.711-18.106-52.624-18.106L-52.624-18.106z"/>
							<path fill="#D0CCCA" d="M-48.02-13.066c0.18,0,0.354-0.094,0.45-0.26c0.142-0.248,0.058-0.564-0.192-0.706l-38.546-22.093
								c-0.246-0.142-0.564-0.057-0.706,0.191c-0.142,0.248-0.056,0.564,0.192,0.706l38.546,22.093
								C-48.196-13.089-48.108-13.066-48.02-13.066L-48.02-13.066z"/>
							<path fill="#D0CCCA" d="M-40.736-6.491c0.18,0,0.353-0.093,0.449-0.261c0.142-0.248,0.056-0.563-0.191-0.706l-45.831-26.269
								c-0.246-0.142-0.564-0.056-0.706,0.191c-0.142,0.248-0.056,0.564,0.192,0.706l45.829,26.269
								C-40.912-6.514-40.823-6.491-40.736-6.491L-40.736-6.491z"/>
							<path fill="#D0CCCA" d="M-40.736-4.092c0.18,0,0.353-0.093,0.449-0.26c0.142-0.247,0.056-0.563-0.191-0.706l-45.831-26.268
								c-0.246-0.142-0.564-0.055-0.706,0.192c-0.142,0.247-0.056,0.564,0.192,0.706L-40.993-4.16
								C-40.912-4.114-40.823-4.092-40.736-4.092L-40.736-4.092z"/>
						</g>
						<g transform="translate(126.000000, 87.000000)">
							<path fill="#D0CCCA" d="M-112.866-12.025c0.087,0,0.174-0.022,0.254-0.067l38.287-21.652c0.249-0.14,0.337-0.456,0.196-0.705
								c-0.141-0.249-0.457-0.336-0.705-0.195l-38.287,21.652c-0.248,0.14-0.336,0.456-0.195,0.704
								C-113.222-12.119-113.046-12.025-112.866-12.025L-112.866-12.025z"/>
							<path fill="#D0CCCA" d="M-120.409-5.36c0.087,0,0.175-0.022,0.255-0.067l45.829-25.916c0.249-0.141,0.337-0.456,0.196-0.705
								c-0.141-0.249-0.457-0.336-0.705-0.195l-45.829,25.916c-0.249,0.141-0.336,0.457-0.195,0.705
								C-120.764-5.454-120.588-5.36-120.409-5.36L-120.409-5.36z"/>
							<path fill="#D0CCCA" d="M-127.086,1.108c0.087,0,0.174-0.022,0.256-0.069l52.507-29.983c0.248-0.142,0.335-0.458,0.192-0.706
								c-0.141-0.248-0.457-0.335-0.706-0.192l-52.507,29.984c-0.247,0.142-0.334,0.457-0.192,0.706
								C-127.44,1.015-127.266,1.108-127.086,1.108L-127.086,1.108z"/>
							<path fill="#D0CCCA" d="M-131.845,5.908c0.086,0,0.173-0.022,0.254-0.066l57.267-32.384c0.249-0.141,0.337-0.457,0.196-0.704
								c-0.141-0.248-0.457-0.337-0.705-0.196l-57.267,32.383c-0.249,0.141-0.336,0.456-0.196,0.705
								C-132.202,5.815-132.026,5.908-131.845,5.908L-131.845,5.908z"/>
						</g>
					</g>
				</g>
				<polygon id="Shape_18_" fill="#00A99D" points="-81.993,67.713 -79.999,68.774 -79.999,62.714 -81.993,62.714 				"/>
			</g>
			<polygon id="Shape_12_" fill="#00A99D" points="62.107,12.418 -21.682,61.627 -34.454,54.09 49.351,4.872 			"/>
			<polygon id="Shape_13_" fill="#00A99D" points="89.709,39.747 63.888,54.695 32.765,36.408 58.602,21.451 			"/>
			<polygon id="Shape_14_" fill="#00A99D" points="60.402,56.368 53.994,59.947 22.872,41.659 29.295,38.072 			"/>
			<polygon id="Shape_19_" fill="#6A1B9A" points="-5,79.97 -12.377,84.184 -39.682,68.201 -32.104,64.285 			"/>
		</g>
	</g>
	<polygon id="Shape_4_" fill="#FFA700" points="-131.192,147.128 -127.716,148.979 -127.716,138.412 -131.192,138.412 	"/>
</g>
</svg>
